<svg xmlns="http://www.w3.org/2000/svg" width="50" height="50" viewBox="0 0 50 50" fill="none"><g clip-path="url(#clip0)"><path d="M43.0796 0.138282C42.8886 0.000685032 42.643 -0.0369125 42.4197 0.0375989L38.0251 1.50244C37.7261 1.60214 37.5244 1.88203 37.5244 2.19726V5.13973C37.5244 5.14236 37.5244 8.99362 37.5244 8.99362L36.5603 9.31491C36.1765 9.44283 35.9692 9.85768 36.0971 10.2414C36.1995 10.5483 36.4852 10.7423 36.7919 10.7423C36.8686 10.7423 36.9467 10.7301 37.0236 10.7045L38.4884 10.2163C38.7875 10.1166 38.9892 9.83668 38.9892 9.52145V5.65486L41.9189 4.6783V7.52878L40.9548 7.85007C40.571 7.978 40.3637 8.39284 40.4916 8.77653C40.6197 9.16022 41.0342 9.36725 41.4181 9.23971L42.883 8.75143C43.182 8.65172 43.3837 8.37184 43.3837 8.05661V3.6493C43.3837 3.64667 43.3837 0.73242 43.3837 0.73242C43.3837 0.496972 43.2706 0.275879 43.0796 0.138282ZM41.9189 3.13417L38.9892 4.11073V2.72509L41.9189 1.74853V3.13417Z" fill="#2424FF"></path><path d="M45.581 4.39453C45.1764 4.39453 44.8486 4.72236 44.8486 5.12695V10.4585L43.8845 10.7798C43.5007 10.9077 43.2934 11.3225 43.4213 11.7062C43.5237 12.0132 43.8094 12.2072 44.1161 12.2072C44.1928 12.2072 44.2709 12.195 44.3478 12.1694L45.8126 11.6811C46.1117 11.5814 46.3134 11.3015 46.3134 10.9863V5.12695C46.3134 4.72246 45.9856 4.39453 45.581 4.39453Z" fill="#2424FF"></path><path d="M24.9756 22.4609C26.1871 22.4609 27.1729 21.4752 27.1729 20.2637V19.5002C31.2963 19.1519 34.546 15.6866 34.546 11.4746C34.546 11.0701 34.2181 10.7421 33.8136 10.7421C33.409 10.7421 33.0811 11.07 33.0811 11.4745C33.0811 14.8785 30.4876 17.6878 27.1729 18.0309V17.3339C27.1729 16.1224 26.1871 15.1366 24.9756 15.1366C24.0595 15.1366 23.2729 15.7004 22.9435 16.4991C22.5438 16.2574 22.0764 16.1172 21.577 16.1137C21.5712 16.1136 21.5655 16.1133 21.5597 16.1132C21.558 16.1132 16.6752 16.1132 16.6752 16.1132C16.6677 16.1133 16.6625 16.1135 16.6574 16.1137C16.1573 16.117 15.6892 16.2573 15.2891 16.4995C14.9598 15.7007 14.1732 15.1367 13.2569 15.1367C12.0454 15.1367 11.0596 16.1225 11.0596 17.334V18.031C7.74491 17.6878 5.15136 14.8785 5.15136 11.4745C5.15136 11.07 4.82353 10.7421 4.41894 10.7421C4.01435 10.7421 3.68652 11.07 3.68652 11.4745C3.68652 15.6865 6.93622 19.1518 11.0596 19.5001V20.2636C11.0596 21.4751 12.0454 22.4608 13.2569 22.4608C13.5138 22.4608 13.7603 22.4161 13.9897 22.3347V25.2794C12.567 26.4538 11.5894 28.0751 11.2221 29.8828L8.8034 41.7924C8.80291 41.7946 8.80252 41.7968 8.80203 41.799L8.2074 44.7271C8.16365 44.9425 8.21893 45.1662 8.35809 45.3363C8.49715 45.5065 8.70535 45.6053 8.92517 45.6053H9.49392L9.06248 47.73L6.53456 48.5725C6.15077 48.7005 5.94345 49.1153 6.07138 49.499C6.17372 49.8059 6.45946 50 6.7661 50C6.84286 50 6.92098 49.9878 6.99784 49.9622L9.92751 48.9856C10.1761 48.9027 10.3615 48.6933 10.4136 48.4365L10.9885 45.6053H21.3135V48.2908C21.3135 48.6061 21.5152 48.886 21.8143 48.9856L24.744 49.9622C24.8208 49.9878 24.8989 50 24.9757 50C25.2823 50 25.5681 49.8059 25.6704 49.499C25.7984 49.1152 25.591 48.7004 25.2072 48.5725L22.7783 47.763V45.6053H29.3075C29.5273 45.6053 29.7355 45.5065 29.8746 45.3363C30.0138 45.1662 30.069 44.9426 30.0253 44.7271L29.4311 41.8005C29.4304 41.7974 29.4298 41.7941 29.4291 41.791L27.0112 29.8829C26.644 28.0751 25.6664 26.4539 24.2436 25.2795V22.335C24.4727 22.4163 24.719 22.4609 24.9756 22.4609ZM21.952 17.6445C22.4298 17.8081 22.7751 18.2594 22.7783 18.7912V18.7987C22.7783 18.8013 22.7787 18.8037 22.7787 18.8063V20.256C22.7787 20.2585 22.7783 20.2609 22.7783 20.2635C22.7783 20.2686 22.7786 20.2734 22.7787 20.2785V24.9022H19.8487V21.4289L21.952 17.6445ZM20.313 17.578L19.1163 19.7312L17.9201 17.578H20.313ZM15.4545 18.7987C15.4545 18.2636 15.8011 17.8089 16.2813 17.6445L18.3838 21.4287V24.9022H15.4545V18.7987ZM15.4545 26.3671H22.7787V38.2811H15.4545V26.3671ZM13.9893 20.2636C13.9893 20.6675 13.6608 20.996 13.2569 20.996C12.853 20.996 12.5245 20.6675 12.5245 20.2636V17.3339C12.5245 16.93 12.853 16.6015 13.2569 16.6015C13.6608 16.6015 13.9893 16.93 13.9893 17.3339V18.7987C13.9893 18.8013 13.9897 18.8037 13.9897 18.8063V20.256C13.9897 20.2586 13.9893 20.261 13.9893 20.2636ZM25.5758 30.1743L27.8166 41.2108H25.7631C25.3585 41.2108 25.0307 41.5386 25.0307 41.9432C25.0307 42.3478 25.3585 42.6756 25.7631 42.6756H28.114L28.4114 44.1404H10.391C10.3892 44.1404 10.3875 44.1404 10.3857 44.1404H9.82127L10.1187 42.6756H22.8334C23.238 42.6756 23.5658 42.3478 23.5658 41.9432C23.5658 41.5386 23.238 41.2108 22.8334 41.2108H10.4163L12.6576 30.1744C12.8691 29.1334 13.3297 28.1687 13.9897 27.3529V39.0135C13.9897 39.4181 14.3175 39.7459 14.7221 39.7459H23.5112C23.9157 39.7459 24.2436 39.4181 24.2436 39.0135V27.3529C24.9035 28.1687 25.3642 29.1334 25.5758 30.1743ZM24.2436 20.2711V18.7987C24.2436 18.7937 24.2432 18.7888 24.2432 18.7837V17.3339C24.2432 16.93 24.5717 16.6015 24.9756 16.6015C25.3795 16.6015 25.708 16.93 25.708 17.3339V20.2636C25.708 20.6675 25.3795 20.996 24.9756 20.996C24.5742 20.996 24.2477 20.6715 24.2436 20.2711Z" fill="#2424FF"></path><path d="M21.2975 4.88299C21.7625 4.36424 22.046 3.67957 22.046 2.92968C22.046 1.31425 20.7317 0 19.1163 0C17.5009 0 16.1866 1.31425 16.1866 2.92968C16.1866 3.67948 16.4701 4.36424 16.9352 4.88299C15.1961 5.70408 13.9894 7.47419 13.9894 9.52145C13.9894 12.3484 16.2894 14.6484 19.1163 14.6484C21.9433 14.6484 24.2432 12.3484 24.2432 9.52145C24.2432 7.47419 23.0366 5.70408 21.2975 4.88299ZM19.1163 1.46484C19.924 1.46484 20.5812 2.12196 20.5812 2.92968C20.5812 3.73739 19.924 4.39451 19.1163 4.39451C18.3086 4.39451 17.6515 3.73748 17.6515 2.92968C17.6515 2.12196 18.3086 1.46484 19.1163 1.46484ZM19.1162 5.85935C19.9632 5.85935 20.7436 6.14919 21.3645 6.63386C20.0131 7.55368 18.2194 7.55368 16.868 6.63386C17.4891 6.14919 18.2692 5.85935 19.1162 5.85935ZM19.1163 13.1835C17.097 13.1835 15.4542 11.5408 15.4542 9.52145C15.4542 8.88014 15.6204 8.27711 15.9112 7.75231C16.8634 8.44293 17.9898 8.78883 19.1163 8.78883C20.2429 8.78883 21.3692 8.44293 22.3214 7.75231C22.6122 8.27711 22.7784 8.88014 22.7784 9.52145C22.7784 11.5408 21.1356 13.1835 19.1163 13.1835Z" fill="#2424FF"></path></g><defs><clipPath id="clip0"><rect width="50" height="50" fill="white"></rect></clipPath></defs></svg>