<svg xmlns="http://www.w3.org/2000/svg" width="52" height="52" viewBox="0 0 52 52" fill="none"><g clip-path="url(#clip0)"><path d="M49.3161 29.8201C50.6499 27.5282 51.5381 24.9471 51.8619 22.1954C51.8631 22.1866 51.8639 22.1779 51.8651 22.1692C51.9531 21.4114 51.9999 20.641 51.9999 19.8598C51.9999 14.7016 50.0226 9.99677 46.7869 6.46231C46.7354 6.39011 46.6747 6.32425 46.6056 6.26752C44.5038 4.03195 41.8917 2.28119 38.9563 1.20526C38.9035 1.18146 38.8488 1.16162 38.7928 1.14734C36.712 0.405457 34.4729 0 32.1401 0C29.5384 0 27.0521 0.503845 24.7729 1.41751C24.711 1.43616 24.6515 1.46075 24.5939 1.49091C21.7914 2.64618 19.3095 4.42511 17.3211 6.65353C17.256 6.71106 17.1981 6.77573 17.1493 6.84714C14.1179 10.3352 12.2803 14.8868 12.2803 19.8598C12.2803 20.6053 12.3231 21.3412 12.4037 22.0656C12.4044 22.0748 12.4056 22.0835 12.4068 22.0922C12.5544 23.407 12.8309 24.6829 13.2233 25.9076L2.55487 36.576C2.15814 36.9727 2.15814 37.6158 2.55487 38.0125C2.75323 38.2109 3.01309 38.3101 3.27295 38.3101C3.53281 38.3101 3.79266 38.2109 3.99103 38.0125L14.0195 27.9844C14.2988 28.6045 14.6091 29.2083 14.9483 29.7927C14.9792 29.8625 15.0185 29.928 15.0641 29.9887C17.5818 34.2166 21.6236 37.4349 26.4264 38.8806L19.2718 46.0348C18.8755 46.4315 18.8755 47.0746 19.2718 47.4713C19.4702 47.6697 19.7304 47.7689 19.9903 47.7689C20.2502 47.7689 20.51 47.6697 20.7084 47.4713L28.7505 39.4289C29.8526 39.6193 30.9848 39.7197 32.1401 39.7197C39.3745 39.7197 45.7169 35.8305 49.1891 30.0339C49.2399 29.9681 49.2827 29.8967 49.3161 29.8201ZM40.5285 29.8602L36.9151 24.2996L38.8365 18.3864L43.4032 17.3608L44.5914 17.0942L49.7834 22.4259C49.468 24.6047 48.7571 26.6574 47.7256 28.5085L40.5285 29.8602ZM27.3655 24.2996L23.7537 29.8574L16.5344 28.472C15.5001 26.6054 14.7916 24.5345 14.4845 22.3366L19.6832 17.0927L25.4441 18.3864L26.7244 22.3271L27.3655 24.2996ZM17.3572 9.90393L18.2733 15.6299L14.3147 19.623C14.3619 16.029 15.4763 12.6878 17.3572 9.90393ZM29.219 23.4312L27.425 17.9099L32.1215 14.498L36.8179 17.9103L35.0239 23.4312H29.219ZM49.9667 19.7027L45.9875 15.6164L46.6909 9.5687C48.7261 12.4382 49.9338 15.9326 49.9667 19.7027ZM44.8965 7.41803L43.9975 15.1459L41.8123 15.6363L38.2747 16.4305L33.1744 12.7251V7.22681L38.6865 3.27618C41.0435 4.21008 43.1545 5.63275 44.8965 7.41803ZM36.2637 2.51367L32.0973 5.49985L27.4524 2.65808C28.9468 2.25024 30.5183 2.03125 32.1401 2.03125C33.5592 2.03125 34.9398 2.19867 36.2637 2.51367ZM24.9875 3.53088L31.1058 7.27441V12.7251L27.5083 15.3387L26.0059 16.4305L20.2517 15.1388L19.0695 7.7489C20.7219 5.9668 22.7329 4.52231 24.9875 3.53088ZM18.105 30.8417L23.5851 31.8938L26.376 36.7315C23.0788 35.602 20.2144 33.5315 18.105 30.8417ZM29.1254 37.4321L25.4235 31.0154L29.0321 25.4624H35.2481L38.8567 31.0154L35.1556 37.4317C34.1749 37.5995 33.1676 37.688 32.1401 37.688C31.1126 37.6884 30.1057 37.5999 29.1254 37.4321ZM37.9046 36.7315L40.694 31.8958L46.153 30.8702C44.0459 33.5462 41.1903 35.606 37.9046 36.7315Z" fill="#2424FF"></path><path d="M13.9875 36.576L0.297546 50.2663C-0.0991821 50.663 -0.0991821 51.3061 0.297546 51.7029C0.495911 51.9008 0.755768 52 1.01562 52C1.27548 52 1.53534 51.9008 1.7337 51.7025L15.424 38.0126C15.8203 37.6158 15.8203 36.9727 15.424 36.576C15.0273 36.1797 14.3842 36.1797 13.9875 36.576Z" fill="#2424FF"></path><path d="M16.8745 48.8528C16.6075 48.8528 16.3457 48.9615 16.1568 49.1503C15.968 49.3392 15.8589 49.601 15.8589 49.8692C15.8589 50.1362 15.9676 50.3972 16.1568 50.5865C16.3457 50.7765 16.6075 50.8848 16.8745 50.8848C17.1419 50.8848 17.4037 50.7765 17.5926 50.5865C17.7814 50.3976 17.8901 50.1362 17.8901 49.8692C17.8901 49.601 17.7818 49.3392 17.5926 49.1503C17.4037 48.9615 17.1419 48.8528 16.8745 48.8528Z" fill="#2424FF"></path></g><defs><clipPath id="clip0"><rect width="52" height="52" fill="white"></rect></clipPath></defs></svg>