<svg xmlns="http://www.w3.org/2000/svg" width="35" height="52" viewBox="0 0 35 52" fill="none"><path d="M9.78199 42.9904C9.78199 43.4168 9.43608 43.7627 9.00971 43.7627C8.58294 43.7627 8.23743 43.4168 8.23743 42.9904C8.23743 42.5637 8.58294 42.2181 9.00971 42.2181C9.43608 42.2181 9.78199 42.5637 9.78199 42.9904Z" fill="#2424FF"></path><path d="M23.6831 48.139C23.6831 48.5653 23.3372 48.9113 22.9108 48.9113C22.4841 48.9113 22.1385 48.5653 22.1385 48.139C22.1385 47.7122 22.4841 47.3667 22.9108 47.3667C23.3372 47.3667 23.6831 47.7122 23.6831 48.139Z" fill="#2424FF"></path><path d="M30.8399 47.3665H29.8616V35.7823C29.8616 33.6528 28.1292 31.9208 26.0002 31.9208H23.6834V29.604C23.6834 28.3265 22.644 27.2871 21.3665 27.2871H20.5942V23.1389C25.7705 22.7431 29.8616 18.4047 29.8616 13.1286C29.8616 12.7018 29.5157 12.3563 29.0893 12.3563C28.6626 12.3563 28.3171 12.7018 28.3171 13.1286C28.3171 17.5918 24.8567 21.2593 20.4784 21.5956C20.1321 20.4231 19.046 19.5643 17.7625 19.5643H12.614C11.0525 19.5643 9.78226 20.8345 9.78226 22.396V27.2871H8.23769V26.2059C8.23769 24.0765 6.50528 22.3445 4.37627 22.3445H3.86142C3.43465 22.3445 3.08913 22.69 3.08913 23.1168C3.08913 23.5432 3.43465 23.8891 3.86142 23.8891H4.37627C5.65376 23.8891 6.69312 24.9285 6.69312 26.2059V34.2827C2.84418 35.3076 0 38.8227 0 42.9902C0 47.9582 4.04162 51.9998 9.00998 51.9998C13.9779 51.9998 18.02 47.9582 18.02 42.9902C18.02 42.3732 17.9572 41.7707 17.8385 41.1882H22.1388V44.355C20.3782 44.7138 19.0497 46.2736 19.0497 48.1388C19.0497 50.2678 20.7817 51.9998 22.9111 51.9998C24.7758 51.9998 26.3357 50.6712 26.6945 48.9111H30.8399C31.2662 48.9111 31.6121 48.5652 31.6121 48.1388C31.6121 47.712 31.2662 47.3665 30.8399 47.3665ZM26.0002 33.4654C27.2777 33.4654 28.3171 34.5048 28.3171 35.7823V47.3665H26.6945C26.3868 45.8557 25.1941 44.6627 23.6834 44.355V33.4654H26.0002ZM21.3665 28.8317C21.7921 28.8317 22.1388 29.178 22.1388 29.604V30.3763H20.5942V28.8317H21.3665ZM11.3268 30.3763V28.8317H19.0497V30.3763H11.3268ZM11.3268 22.396C11.3268 21.6861 11.904 21.1089 12.614 21.1089H17.7625C18.4721 21.1089 19.0497 21.6861 19.0497 22.396V27.2871H11.3268V22.396ZM9.78226 28.8317V30.3763H8.23769V28.8317H9.78226ZM8.23769 31.9208H22.1388V36.5545H15.3085C13.6831 34.9629 11.4592 33.9803 9.00998 33.9803C8.74973 33.9803 8.4923 33.9919 8.23769 34.0136V31.9208ZM9.00998 50.4556C4.89354 50.4556 1.54457 47.1067 1.54457 42.9902C1.54457 38.8738 4.89354 35.5248 9.00998 35.5248C13.1264 35.5248 16.4754 38.8738 16.4754 42.9902C16.4754 47.1067 13.1264 50.4556 9.00998 50.4556ZM17.3752 39.6437C17.1572 39.1007 16.8877 38.5838 16.5731 38.0991H22.1388V39.6437H17.3752ZM22.9111 50.4556C21.6336 50.4556 20.5942 49.4159 20.5942 48.1388C20.5942 46.8613 21.6336 45.8219 22.9111 45.8219C24.1886 45.8219 25.2279 46.8613 25.2279 48.1388C25.2279 49.4159 24.1886 50.4556 22.9111 50.4556Z" fill="#2424FF"></path><path d="M15.1883 18.0196C18.1689 18.0196 20.5943 15.5946 20.5943 12.6137C20.5943 10.4549 19.3221 8.58854 17.4879 7.72253C17.9786 7.1759 18.2775 6.4539 18.2775 5.66311C18.2775 3.95966 16.8914 2.57397 15.1883 2.57397C13.4849 2.57397 12.0992 3.95966 12.0992 5.66311C12.0992 6.45349 12.3981 7.1759 12.8884 7.72253C11.0546 8.58854 9.78235 10.4549 9.78235 12.6137C9.78235 15.5946 12.2074 18.0196 15.1883 18.0196ZM18.9621 11.7979C16.887 11.592 14.9896 10.6435 13.577 9.1058C14.0677 8.87935 14.6131 8.75224 15.1883 8.75224C17.0374 8.75224 18.5868 10.0595 18.9621 11.7979ZM13.6438 5.66311C13.6438 4.81159 14.3364 4.11854 15.1883 4.11854C16.0399 4.11854 16.7329 4.81159 16.7329 5.66311C16.7329 6.51463 16.0399 7.20768 15.1883 7.20768C14.3364 7.20768 13.6438 6.51463 13.6438 5.66311ZM12.3257 10.0249C14.0444 11.9612 16.4007 13.1394 18.9782 13.351C18.633 15.1284 17.0651 16.4751 15.1883 16.4751C13.0589 16.4751 11.3269 14.7427 11.3269 12.6137C11.3269 11.6185 11.7054 10.7103 12.3257 10.0249Z" fill="#2424FF"></path><path d="M9.00971 37.0695C5.7448 37.0695 3.08887 39.7254 3.08887 42.9903C3.08887 46.2548 5.7448 48.9111 9.00971 48.9111C12.2742 48.9111 14.9305 46.2548 14.9305 42.9903C14.9305 39.7254 12.2742 37.0695 9.00971 37.0695ZM9.00971 47.3666C6.59632 47.3666 4.63343 45.4033 4.63343 42.9903C4.63343 40.5769 6.59632 38.614 9.00971 38.614C11.4227 38.614 13.386 40.5769 13.386 42.9903C13.386 45.4033 11.4227 47.3666 9.00971 47.3666Z" fill="#2424FF"></path><path d="M29.0895 0C26.1085 0 23.6835 2.42505 23.6835 5.40598C23.6835 8.38692 26.1085 10.812 29.0895 10.812C32.07 10.812 34.4954 8.38692 34.4954 5.40598C34.4954 2.42505 32.07 0 29.0895 0ZM29.0895 9.2674C26.96 9.2674 25.228 7.53499 25.228 5.40598C25.228 3.27657 26.96 1.54457 29.0895 1.54457C31.2185 1.54457 32.9509 3.27657 32.9509 5.40598C32.9509 7.53499 31.2185 9.2674 29.0895 9.2674Z" fill="#2424FF"></path></svg>