<svg xmlns="http://www.w3.org/2000/svg" width="16" height="16" viewBox="0 0 16 16" fill="none"><g clip-path="url(#clip0)"><path d="M15.9844 4.70404C15.9469 3.8539 15.8094 3.26944 15.6125 2.76299C15.4093 2.22541 15.0968 1.74412 14.6873 1.34401C14.2872 0.937683 13.8027 0.621948 13.2714 0.421957C12.762 0.22502 12.1806 0.0875415 11.3304 0.0500586C10.4739 0.00940124 10.202 0 8.02975 0C5.85745 0 5.58555 0.00940124 4.73223 0.0468842C3.88209 0.0843671 3.29763 0.221967 2.79131 0.418783C2.2536 0.621948 1.77231 0.934509 1.37221 1.34401C0.96588 1.74412 0.650267 2.22858 0.450155 2.75994C0.253217 3.26944 0.11574 3.85073 0.0782567 4.70087C0.0375995 5.55736 0.0281982 5.82926 0.0281982 8.00156C0.0281982 10.1739 0.0375995 10.4458 0.0750823 11.2991C0.112565 12.1492 0.250165 12.7337 0.447102 13.2401C0.650267 13.7777 0.96588 14.259 1.37221 14.6591C1.77231 15.0654 2.25678 15.3812 2.78813 15.5812C3.29763 15.7781 3.87892 15.9156 4.72918 15.9531C5.58237 15.9907 5.8544 16 8.02669 16C10.199 16 10.4709 15.9907 11.3242 15.9531C12.1743 15.9156 12.7588 15.7781 13.2651 15.5812C14.3404 15.1654 15.1906 14.3153 15.6063 13.2401C15.8031 12.7306 15.9407 12.1492 15.9782 11.2991C16.0157 10.4458 16.0251 10.1739 16.0251 8.00156C16.0251 5.82926 16.0219 5.55736 15.9844 4.70404ZM14.5436 11.2366C14.5091 12.018 14.3779 12.4399 14.2685 12.7212C13.9997 13.4183 13.4464 13.9715 12.7494 14.2403C12.4681 14.3497 12.0431 14.481 11.2647 14.5153C10.4208 14.5529 10.1677 14.5622 8.03292 14.5622C5.89811 14.5622 5.64183 14.5529 4.80097 14.5153C4.01957 14.481 3.59761 14.3497 3.31631 14.2403C2.96944 14.1121 2.65371 13.909 2.39743 13.6433C2.13175 13.3838 1.92859 13.0713 1.80039 12.7244C1.691 12.4431 1.55974 12.018 1.52544 11.2397C1.48783 10.3958 1.47855 10.1426 1.47855 8.00779C1.47855 5.87297 1.48783 5.6167 1.52544 4.77596C1.55974 3.99455 1.691 3.5726 1.80039 3.29129C1.92859 2.9443 2.13175 2.62869 2.40061 2.37229C2.65993 2.10661 2.97249 1.90345 3.31948 1.77537C3.60079 1.66597 4.02592 1.53472 4.80415 1.50029C5.64806 1.46281 5.90128 1.45341 8.03597 1.45341C10.174 1.45341 10.4271 1.46281 11.2679 1.50029C12.0493 1.53472 12.4713 1.66597 12.7526 1.77537C13.0995 1.90345 13.4152 2.10661 13.6715 2.37229C13.9371 2.63174 14.1403 2.9443 14.2685 3.29129C14.3779 3.5726 14.5091 3.99761 14.5436 4.77596C14.5811 5.61987 14.5905 5.87297 14.5905 8.00779C14.5905 10.1426 14.5811 10.3927 14.5436 11.2366Z" fill="#2424FF"></path><path d="M8.02973 3.89136C5.76061 3.89136 3.91956 5.73229 3.91956 8.00154C3.91956 10.2708 5.76061 12.1117 8.02973 12.1117C10.299 12.1117 12.1399 10.2708 12.1399 8.00154C12.1399 5.73229 10.299 3.89136 8.02973 3.89136ZM8.02973 10.6677C6.55764 10.6677 5.36356 9.47375 5.36356 8.00154C5.36356 6.52932 6.55764 5.33537 8.02973 5.33537C9.50194 5.33537 10.6959 6.52932 10.6959 8.00154C10.6959 9.47375 9.50194 10.6677 8.02973 10.6677Z" fill="#2424FF"></path><path d="M13.262 3.72886C13.262 4.25875 12.8323 4.6884 12.3023 4.6884C11.7724 4.6884 11.3428 4.25875 11.3428 3.72886C11.3428 3.19885 11.7724 2.76932 12.3023 2.76932C12.8323 2.76932 13.262 3.19885 13.262 3.72886Z" fill="#2424FF"></path></g><defs><clipPath id="clip0"><rect width="16" height="16" fill="white"></rect></clipPath></defs></svg>