<svg xmlns="http://www.w3.org/2000/svg" width="50" height="50" viewBox="0 0 50 50" fill="none"><g clip-path="url(#clip0)"><path d="M43.5548 0.732459C43.5548 0.497009 43.4416 0.275916 43.2507 0.138318C43.0596 0.000720305 42.8142 -0.036682 42.5907 0.0376344L38.1962 1.50248C37.897 1.60219 37.6954 1.88207 37.6954 2.1973V8.99359L36.7313 9.31498C36.3475 9.44291 36.1402 9.85765 36.2681 10.2414C36.3705 10.5484 36.6562 10.7425 36.9629 10.7424C37.0396 10.7424 37.1178 10.7302 37.1946 10.7046L38.6595 10.2163C38.9586 10.1166 39.1602 9.83675 39.1602 9.52152V5.65492L42.0899 4.67836V7.52875L41.1259 7.85013C40.7421 7.97806 40.5347 8.39281 40.6627 8.7766C40.7907 9.16039 41.2053 9.36771 41.5891 9.23988L43.054 8.7516C43.3531 8.65179 43.5548 8.37191 43.5548 8.05668V0.732459ZM42.0899 3.13422L39.1602 4.11078V2.72523L42.0899 1.74867V3.13422Z" fill="#2424FF"></path><path d="M45.752 4.39453C45.3474 4.39453 45.0196 4.72246 45.0196 5.12695V10.4584L44.0555 10.7798C43.6718 10.9077 43.4644 11.3225 43.5924 11.7063C43.6947 12.0132 43.9804 12.2072 44.2871 12.2072C44.3638 12.2072 44.442 12.195 44.5188 12.1694L45.9837 11.6812C46.2828 11.5814 46.4844 11.3016 46.4844 10.9863V5.12695C46.4844 4.72246 46.1566 4.39453 45.752 4.39453Z" fill="#2424FF"></path><path d="M15.7227 9.52148C15.7227 12.3485 18.0226 14.6484 20.8496 14.6484C23.6767 14.6484 25.9766 12.3485 25.9766 9.52148C25.9766 7.77773 25.1009 6.23545 23.7669 5.30889C24.2231 4.90596 24.5117 4.31729 24.5117 3.66211C24.5117 3.1748 24.3542 2.71172 24.0632 2.33105C23.9998 1.85615 23.7838 1.41729 23.4391 1.07256C23.0945 0.728027 22.6557 0.512012 22.1808 0.448633C21.8 0.15752 21.3369 0 20.8496 0C20.3623 0 19.8992 0.157617 19.5186 0.448633C19.0436 0.512012 18.6048 0.728027 18.2602 1.07266C17.9155 1.41729 17.6995 1.85605 17.6361 2.33105C17.345 2.71172 17.1875 3.1748 17.1875 3.66211C17.1875 4.31729 17.4761 4.90596 17.9323 5.30889C16.5983 6.23545 15.7227 7.77773 15.7227 9.52148ZM18.8669 3.14424C19.0043 3.00693 19.0814 2.82061 19.0814 2.62637C19.0814 2.43076 19.1576 2.24678 19.296 2.1084C19.4344 1.97002 19.6183 1.89395 19.8139 1.89395C20.0081 1.89395 20.1944 1.8168 20.3317 1.67939C20.4701 1.54102 20.654 1.46484 20.8496 1.46484C21.0452 1.46484 21.2292 1.54102 21.3676 1.67939C21.5049 1.8168 21.6912 1.89395 21.8854 1.89395C22.0811 1.89395 22.265 1.97012 22.4033 2.1084C22.5417 2.24678 22.6179 2.43076 22.6179 2.62637C22.6179 2.82061 22.695 3.00693 22.8324 3.14424C22.9708 3.28262 23.0469 3.4665 23.0469 3.66211C23.0469 4.06602 22.7184 4.39453 22.3145 4.39453H19.3848C18.9809 4.39453 18.6523 4.06602 18.6523 3.66211C18.6523 3.4665 18.7285 3.28262 18.8669 3.14424ZM20.8496 5.85938C22.8689 5.85938 24.5117 7.50215 24.5117 9.52148C24.5117 11.5408 22.8689 13.1836 20.8496 13.1836C18.8303 13.1836 17.1875 11.5408 17.1875 9.52148C17.1875 7.50215 18.8303 5.85938 20.8496 5.85938Z" fill="#2424FF"></path><path d="M34.7656 10.0098C34.7656 9.60527 34.4378 9.27734 34.0332 9.27734C33.6286 9.27734 33.3008 9.60527 33.3008 10.0098C33.3008 14.2426 30.019 17.7208 25.8667 18.0399C25.5384 16.9276 24.5083 16.1133 23.291 16.1133H18.4082C17.1813 16.1133 16.1447 16.9406 15.825 18.0664H9.13086C8.72695 18.0664 8.39844 17.7379 8.39844 17.334C8.39844 16.9301 8.72695 16.6016 9.13086 16.6016H10.5957C11.0002 16.6016 11.3281 16.2736 11.3281 15.8691V1.2207C11.3281 0.816211 11.0002 0.488281 10.5957 0.488281C10.1912 0.488281 9.86328 0.816211 9.86328 1.2207V4.24834L5.6376 4.80605C4.42783 4.96455 3.51562 6.00518 3.51562 7.22656C3.51562 7.70078 3.65186 8.15635 3.90146 8.54492C3.65186 8.93359 3.51562 9.38906 3.51562 9.86328C3.51562 11.0847 4.42783 12.1253 5.63691 12.2838C5.63691 12.2838 8.54561 12.6677 9.86328 12.8416V15.1367H9.13086C7.91924 15.1367 6.93359 16.1224 6.93359 17.334C6.93359 18.5456 7.91924 19.5312 9.13086 19.5312H15.7227V28.5645C15.7227 31.1428 17.636 33.2816 20.1172 33.6383V38.8184C20.1172 38.9558 20.0778 39.0905 20.0032 39.2085L15.836 45.8001C15.7619 45.9171 15.7227 46.0528 15.7227 46.1914V49.2676C15.7227 49.6721 16.0506 50 16.4551 50C16.8596 50 17.1875 49.6721 17.1875 49.2676V46.4035L21.2411 39.9916C21.4642 39.6393 21.582 39.2336 21.582 38.8184V33.6914H31.1035C31.5074 33.6914 31.8359 34.0199 31.8359 34.4238C31.8359 34.7426 31.6321 35.0226 31.3284 35.1205L23.5541 37.6331C23.2518 37.7308 23.047 38.0123 23.047 38.3301V41.2598C23.047 41.6643 23.3749 41.9922 23.7794 41.9922C24.1839 41.9922 24.5118 41.6643 24.5118 41.2598V38.8631L31.7787 36.5145C32.6891 36.2206 33.3008 35.3805 33.3008 34.4238C33.3008 33.2122 32.315 32.2266 31.1035 32.2266H25.9766V19.5033C30.8858 19.1281 34.7656 15.0136 34.7656 10.0098ZM6.93359 10.9773L5.82793 10.8313C5.34482 10.7681 4.98047 10.3519 4.98047 9.86328C4.98047 9.5709 5.11006 9.29619 5.33594 9.10967C5.50449 8.97051 5.60205 8.76338 5.60205 8.54482C5.60205 8.32637 5.50439 8.11924 5.33594 7.98008C5.11006 7.79365 4.98047 7.51895 4.98047 7.22656C4.98047 6.73799 5.34482 6.32178 5.82861 6.2584L6.93359 6.1126V10.9773ZM8.39844 11.1707V5.91924L9.86328 5.72588V11.3641L8.39844 11.1707ZM24.5117 32.2266H20.8496C18.8303 32.2266 17.1875 30.5838 17.1875 28.5645V21.7285C17.1875 21.0554 17.735 20.5078 18.4079 20.5078C18.7339 20.5078 19.0405 20.6348 19.2726 20.8669L20.2897 21.876C20.4824 22.0657 20.6767 22.1323 20.8495 22.1323C21.0767 22.1323 21.267 22.0174 21.3686 21.9158L22.4148 20.8654C22.6455 20.6349 22.952 20.5078 23.278 20.5078C23.9583 20.5078 24.5117 21.0554 24.5117 21.7285V32.2266ZM24.5117 19.3413C24.1417 19.1511 23.7224 19.043 23.278 19.043C22.5608 19.043 21.8864 19.3223 21.378 19.8305L20.8458 20.3648C20.6631 20.1835 20.4638 19.9854 20.3067 19.8294C19.7995 19.3223 19.1251 19.0429 18.4079 19.0429C17.9686 19.0429 17.554 19.1496 17.1875 19.3375V18.7988C17.1875 18.1257 17.7351 17.5781 18.4082 17.5781H23.291C23.9642 17.5781 24.5117 18.1257 24.5117 18.7988V19.3413Z" fill="#2424FF"></path></g><defs><clipPath id="clip0"><rect width="50" height="50" fill="white"></rect></clipPath></defs></svg>