<svg xmlns="http://www.w3.org/2000/svg" width="52" height="52" viewBox="0 0 52 52" fill="none"><g clip-path="url(#clip0)"><path d="M47.1913 2.74444C46.4589 1.47582 45.2762 0.568454 43.8613 0.189219C42.4461 -0.189914 40.9684 0.00467992 39.6996 0.73715C38.4309 1.46962 37.5235 2.65232 37.1445 4.06729L36.9343 4.85206C36.659 5.87947 36.6876 6.93979 37.0036 7.92931C36.5135 7.87589 36.0212 7.89905 35.544 7.99543C35.4615 8.00203 35.2038 8.07739 35.2038 8.07739C35.0307 8.12573 34.8603 8.18373 34.6934 8.25147L28.8337 10.2503L25.4187 6.83518C25.6034 6.45036 25.7071 6.01943 25.7071 5.56473V5.02868C25.7071 3.40459 24.3858 2.08347 22.7619 2.08347H21.5476C19.9237 2.08347 18.6024 3.40469 18.6024 5.02868V5.56473C18.6024 6.30431 18.877 6.98062 19.3289 7.49838C19.1973 7.61569 19.0956 7.76661 19.0389 7.93967C18.9289 8.27534 19.0013 8.64411 19.23 8.91325L19.3452 9.04884L13.756 5.22317C13.3089 4.91717 12.7014 5.01629 12.3742 5.44661L9.24007 3.10529C7.81129 2.03797 5.78064 2.33209 4.71342 3.76087C3.646 5.18935 3.94012 7.22 5.36891 8.28732L8.48962 10.6186L8.01025 11.257C7.83739 11.4872 7.77036 11.7799 7.82571 12.0623C7.88116 12.3447 8.05372 12.5904 8.30072 12.7383L13.3437 15.7573C13.825 16.0454 14.4486 15.8888 14.7368 15.4075C15.025 14.9263 14.8684 14.3026 14.3872 14.0144L10.3119 11.5749L13.4107 7.44811L22.7329 13.829L24.6198 15.2211C24.6215 15.2224 24.6233 15.2236 24.6251 15.225L29.1273 18.5466L35.915 25.4029V32.0437C35.915 32.6045 36.3698 33.0593 36.9306 33.0593C37.4915 33.0593 37.9463 32.6045 37.9463 32.0437V26.9012L39.2005 28.1554C39.3471 28.302 39.534 28.3985 39.7351 28.4355C39.8727 28.8715 40.1133 29.2819 40.4584 29.627C40.4584 29.6271 40.4584 29.6271 40.4585 29.6271L41.0197 30.1883C41.5939 30.7624 42.3482 31.0496 43.1024 31.0496C43.8566 31.0496 44.6109 30.7624 45.185 30.1883L46.2541 29.1193C47.4025 27.9708 47.4025 26.1023 46.2541 24.954L45.6927 24.3926C45.2006 23.9005 44.576 23.6199 43.9326 23.5497C43.9136 23.527 43.894 23.5047 43.8726 23.4833L40.9929 20.6036L43.3773 16.9385C44.0979 15.831 44.3251 14.5136 44.0173 13.2287C43.8793 12.6534 43.6422 12.1213 43.3204 11.6494C43.8945 11.5326 44.4521 11.3225 44.9741 11.0211C46.2428 10.2886 47.1503 9.10592 47.5293 7.69094L47.7395 6.90617C48.1184 5.4911 47.9239 4.01316 47.1913 2.74444ZM9.69751 8.98567L6.58451 6.66008C6.32705 6.46772 6.15988 6.1867 6.11387 5.86871C6.06776 5.55071 6.1484 5.23374 6.34066 4.97628C6.57659 4.66042 6.93907 4.49365 7.30601 4.49365C7.55636 4.49365 7.80885 4.57134 8.02447 4.73242L11.1376 7.05801L9.69751 8.98567ZM38.4889 10.6655L40.3998 11.7688L38.0871 12.6472L38.4889 10.6655ZM20.6336 5.56453V5.02848C20.6336 4.52452 21.0436 4.11441 21.5476 4.11441H22.7619C23.266 4.11441 23.676 4.52452 23.676 5.02848V5.56453C23.676 6.06848 23.266 6.47859 22.7619 6.47859H21.5476C21.0436 6.47859 20.6336 6.06848 20.6336 5.56453ZM28.8031 15.7832L25.9283 13.6622L21.8502 8.86034L24.0487 8.33749L27.8447 12.1335C28.1187 12.4074 28.5246 12.5015 28.8909 12.3765L31.5983 11.453L28.8031 15.7832ZM34.3365 20.9212L30.5151 17.0612C30.4912 17.0373 30.4644 17.0165 30.4383 16.995L34.1894 11.1844C34.4977 10.7067 34.9306 10.3568 35.4185 10.1499L35.7936 10.0219C36.0443 9.9562 36.304 9.92603 36.5649 9.93335L34.3365 20.9212ZM42.9635 25.8288C43.136 25.6562 43.3656 25.5611 43.6097 25.5611C43.8539 25.5611 44.0835 25.6562 44.256 25.8288L44.8174 26.3901C44.99 26.5626 45.0851 26.7922 45.0851 27.0364C45.0851 27.2805 44.99 27.5101 44.8174 27.6826L43.7483 28.7518C43.5758 28.9245 43.3461 29.0195 43.1021 29.0195C42.8579 29.0195 42.6283 28.9245 42.4556 28.7518L41.8944 28.1907C41.538 27.8342 41.538 27.2543 41.8944 26.8979L42.9635 25.8288ZM41.718 24.2012L39.9183 26.0009L38.4417 24.5243L39.8603 22.3436L41.718 24.2012ZM41.6745 15.8306L36.766 23.3754L36.0566 22.6588L37.6097 15.0012L41.9349 13.3584C41.9773 13.4696 42.0134 13.5838 42.0417 13.7016C42.2182 14.4391 42.0878 15.1951 41.6745 15.8306ZM45.7772 6.38038L45.567 7.16526C45.0741 9.00435 43.1767 10.0997 41.3378 9.60693C40.4469 9.36815 39.7023 8.79676 39.2411 7.99797C38.7799 7.19918 38.6574 6.26866 38.8962 5.37775L39.1064 4.59298C39.3452 3.70207 39.9166 2.95741 40.7154 2.49622C41.5141 2.03492 42.4447 1.91254 43.3356 2.15131C44.2265 2.39008 44.9711 2.96147 45.4323 3.76016C45.8935 4.55885 46.016 5.48937 45.7772 6.38038Z" fill="#2424FF"></path><path d="M17.8554 16.1269C17.6666 15.938 17.4055 15.8293 17.1374 15.8293C16.8703 15.8293 16.6093 15.938 16.4194 16.1269C16.2305 16.3158 16.1228 16.5779 16.1228 16.845C16.1228 17.1121 16.2305 17.3741 16.4194 17.563C16.6093 17.7519 16.8703 17.8606 17.1374 17.8606C17.4055 17.8606 17.6666 17.7519 17.8554 17.563C18.0453 17.3741 18.154 17.1121 18.154 16.845C18.154 16.5779 18.0453 16.3158 17.8554 16.1269Z" fill="#2424FF"></path><path d="M37.6487 35.134C37.4598 34.9451 37.1978 34.8364 36.9307 34.8364C36.6636 34.8364 36.4015 34.945 36.2126 35.134C36.0238 35.3229 35.915 35.5849 35.915 35.8521C35.915 36.1192 36.0237 36.3812 36.2126 36.57C36.4015 36.759 36.6636 36.8677 36.9307 36.8677C37.1978 36.8677 37.4598 36.759 37.6487 36.57C37.8375 36.3812 37.9463 36.1192 37.9463 35.8521C37.9463 35.5849 37.8375 35.3229 37.6487 35.134Z" fill="#2424FF"></path><path d="M37.946 46.3323V40.0667C37.946 39.5059 37.4912 39.0511 36.9304 39.0511C36.3696 39.0511 35.9148 39.5059 35.9148 40.0667V45.9065H35.9134H31.5477V31.6373C31.5477 31.4785 31.5105 31.322 31.4391 31.1803L27.6111 23.5829C27.6062 23.5732 27.6004 23.5645 27.5953 23.5551C27.5865 23.5391 27.5778 23.5231 27.5681 23.5074C27.5581 23.491 27.5473 23.4755 27.5364 23.4599C27.5307 23.4515 27.5257 23.4428 27.5196 23.4346L25.5587 20.7926C25.4792 20.6855 25.3793 20.595 25.2648 20.5264L20.9821 17.9626C20.5006 17.6745 19.8771 17.831 19.589 18.3124C19.3008 18.7936 19.4574 19.4173 19.9386 19.7054L24.048 22.1653L25.8361 24.5747L29.5164 31.8786V46.922V49.4611C29.5164 49.6349 29.5341 49.8047 29.5675 49.9689H23.5274C22.9665 49.9689 22.5117 50.4237 22.5117 50.9845C22.5117 51.5453 22.9665 52.0001 23.5274 52.0001H39.9758C40.5367 52.0001 40.9915 51.5453 40.9915 50.9845C40.9916 48.907 39.737 47.1178 37.946 46.3323ZM34.9698 49.969H32.0556C31.7756 49.969 31.5478 49.7412 31.5478 49.4612V47.9377H35.9135C37.2376 47.9377 38.3671 48.7867 38.7862 49.969H34.9698Z" fill="#2424FF"></path></g><defs><clipPath id="clip0"><rect width="52" height="52" fill="white"></rect></clipPath></defs></svg>