<svg xmlns="http://www.w3.org/2000/svg" width="52" height="52" viewBox="0 0 52 52" fill="none"><path d="M16.9127 25.1334V26.8668C16.9127 27.8227 16.1354 28.6001 15.1794 28.6001H12.5794C11.6235 28.6001 10.846 27.8228 10.846 26.8668V13.8668C10.846 12.9109 11.6234 12.1334 12.5794 12.1334H15.1794C15.8909 12.1334 16.5296 12.5693 16.7896 13.2263L16.9231 14.0124L18.6322 13.7221L18.4848 12.8554C18.4762 12.8061 18.464 12.7583 18.4475 12.7115C17.9596 11.3283 16.6457 10.4001 15.1794 10.4001H15.1784H12.5784C10.6665 10.4001 9.11182 11.955 9.11182 13.8668V26.8668C9.11182 28.7787 10.6666 30.3334 12.5784 30.3334H15.1784C17.0904 30.3334 18.6451 28.7786 18.646 26.8668V25.1334H16.9127Z" fill="#2424FF"></path><path d="M13.8786 2.59998C11.2499 2.59998 9.11194 4.73807 9.11194 7.36661C9.11194 9.99515 11.25 12.1332 13.8786 12.1332C16.5071 12.1332 18.6452 9.99515 18.6452 7.36661C18.6452 4.73807 16.5072 2.59998 13.8786 2.59998ZM13.8786 10.4C12.2059 10.4 10.8452 9.03934 10.8452 7.36661C10.8452 5.69398 12.2058 4.33324 13.8786 4.33324C15.5512 4.33324 16.9119 5.69387 16.9119 7.36661C16.9119 9.03934 15.5512 10.4 13.8786 10.4Z" fill="#2424FF"></path><path d="M9.97865 18.2001H8.07202C6.73393 18.2001 5.64539 19.2886 5.64539 20.6267V24.4401C5.64539 25.7781 6.73393 26.8667 8.07202 26.8667H9.97865C10.457 26.8667 10.8453 26.4793 10.8453 26.0001V19.0667C10.8453 18.5883 10.457 18.2001 9.97865 18.2001ZM9.11202 25.1334H8.07202C7.68984 25.1334 7.37865 24.8223 7.37865 24.4401V20.6267C7.37865 20.2445 7.68974 19.9333 8.07202 19.9333H9.11202V25.1334Z" fill="#2424FF"></path><path d="M24.712 10.4H21.2454V12.1334H24.712C26.1454 12.1334 27.312 13.2999 27.312 14.7334V29.4668H18.6454V23.4H16.912V30.3334C16.912 30.8127 17.3003 31.2 17.7786 31.2H28.1786C28.6579 31.2 29.0453 30.8127 29.0453 30.3334V14.7334C29.0453 12.3439 27.1013 10.4 24.712 10.4Z" fill="#2424FF"></path><path d="M28.0365 3.23879L26.3639 3.6947C26.4203 3.90097 26.448 4.11334 26.4463 4.33343V7.80006C26.4463 9.23351 25.2797 10.4001 23.8463 10.4001C22.4128 10.4001 21.2463 9.23351 21.2463 7.80006V4.32561C21.2446 4.11151 21.2723 3.90006 21.3277 3.69551L19.6559 3.23706C19.5571 3.59588 19.5086 3.9677 19.512 4.33343V7.80006C19.512 10.1894 21.4559 12.1334 23.8454 12.1334C26.2347 12.1334 28.1787 10.1895 28.1795 7.80006V4.34115C28.183 3.96943 28.1345 3.59842 28.0365 3.23879Z" fill="#2424FF"></path><path d="M29.0452 0H22.9786C21.0667 0 19.512 1.55482 19.512 3.46663V6.93327C19.512 7.28335 19.7234 7.59972 20.0467 7.73409C20.1541 7.77827 20.2668 7.7999 20.3786 7.7999C20.604 7.7999 20.8258 7.71154 20.9913 7.54599L24.2041 4.33327H26.4452C28.3572 4.33327 29.9119 2.77845 29.9119 0.866633C29.912 0.388273 29.5245 0 29.0452 0ZM26.4452 2.6H23.8452C23.6156 2.6 23.3954 2.691 23.2325 2.85391L21.2452 4.84118V3.46663C21.2452 2.51073 22.0226 1.73327 22.9786 1.73327H27.9455C27.6465 2.25073 27.0858 2.6 26.4452 2.6Z" fill="#2424FF"></path><path d="M36.7534 45.5451L28.9534 29.9451L27.403 30.7207L34.8156 45.5451L32.8612 46.5218L25.9443 34.2584C25.5136 33.4507 24.6755 32.9428 23.75 32.9333C22.3685 32.9333 21.2453 34.0565 21.2453 35.438V39.2808C21.2392 40.3277 20.6118 41.2637 19.6446 41.6676L12.1245 44.8205L11.1591 42.8904L18.1305 39.7921C18.4434 39.6525 18.6453 39.3432 18.6453 39V30.3333H16.912V38.4375L9.62679 41.6745C9.41097 41.7707 9.24289 41.951 9.16316 42.1737C9.08343 42.3964 9.09816 42.6426 9.20389 42.8541L10.9373 46.3207C11.1409 46.7289 11.6245 46.9074 12.0474 46.7323L20.3137 43.2665C21.9231 42.5949 22.9692 41.0349 22.9787 39.2859V35.4379C22.9787 35.0123 23.3245 34.6665 23.7413 34.6665C24.0247 34.6691 24.2822 34.8251 24.4252 35.0921L31.7572 48.0921C31.9166 48.3729 32.2087 48.5331 32.5129 48.5331C32.6438 48.5331 32.7755 48.5037 32.8994 48.4412L36.3661 46.7079C36.7942 46.4941 36.9675 45.9732 36.7534 45.5451Z" fill="#2424FF"></path><path d="M13.8294 48.2412L10.7527 42.0792C10.6505 41.8738 10.4702 41.7169 10.2518 41.6441C10.0335 41.5695 9.7951 41.5877 9.58974 41.6909L6.12311 43.4243C5.91775 43.5274 5.76175 43.7076 5.68893 43.9252C5.61611 44.1435 5.63347 44.3828 5.73656 44.5882L8.72656 50.5578C9.16927 51.447 10.0602 51.9999 11.0534 51.9999H11.504C12.4972 51.9999 13.3899 51.4461 13.8301 50.5561C14.1907 49.8315 14.1907 48.9665 13.8294 48.2412ZM12.2797 49.7855C12.1324 50.0819 11.8351 50.2665 11.5041 50.2665H11.0535C10.7233 50.2665 10.426 50.0819 10.2786 49.7855C10.2786 49.7846 10.2778 49.7838 10.2778 49.7821L7.6761 44.5873L9.59146 43.6287L12.2798 49.0142C12.4002 49.256 12.4002 49.5438 12.2797 49.7855Z" fill="#2424FF"></path><path d="M41.0859 45.5434C40.3926 44.1644 38.7061 43.6012 37.3237 44.291L32.1238 46.891C31.6957 47.1051 31.5223 47.6259 31.7364 48.0541L33.4698 51.5207C33.6223 51.8249 33.9282 52 34.2463 52C34.3772 52 34.5089 51.9706 34.6329 51.9081L39.8328 49.3081C39.8328 49.3081 39.8338 49.3072 39.8346 49.3072C41.2125 48.6148 41.7749 46.9283 41.0859 45.5434ZM39.057 47.7576L34.6326 49.9703L33.675 48.0541L38.0977 45.8424C38.6255 45.5789 39.272 45.7947 39.5355 46.319C39.798 46.8468 39.5831 47.4916 39.057 47.7576Z" fill="#2424FF"></path><path d="M13.8786 6.06665C13.1619 6.06665 12.5786 6.64992 12.5786 7.36665C12.5786 8.08338 13.1619 8.66665 13.8786 8.66665C14.5953 8.66665 15.1786 8.08338 15.1786 7.36665C15.1786 6.64992 14.5953 6.06665 13.8786 6.06665ZM13.8786 7.80002C13.6394 7.80002 13.4452 7.60593 13.4452 7.36665C13.4452 7.12747 13.6393 6.93328 13.8786 6.93328C14.1178 6.93328 14.312 7.12737 14.312 7.36665C14.312 7.60593 14.1178 7.80002 13.8786 7.80002Z" fill="#2424FF"></path><path d="M40.7722 16.1712C40.6839 16.0542 40.5876 15.9441 40.4845 15.841C39.9169 15.2769 39.1654 14.9674 38.3655 14.9674C38.3621 14.9674 38.3586 14.9674 38.3542 14.9674C37.5517 14.97 36.7969 15.2855 36.2335 15.8531L32.571 19.5157L28.8451 15.0446L27.513 16.154L31.8464 21.354C32.0032 21.5411 32.2303 21.6539 32.4739 21.665C32.7157 21.6746 32.954 21.5844 33.1256 21.412L37.4615 17.0769C37.7007 16.836 38.0196 16.7016 38.3611 16.7008C38.362 16.7008 38.3638 16.7008 38.3655 16.7008C38.7035 16.7008 39.0233 16.8317 39.2625 17.07C39.3067 17.1141 39.3491 17.1619 39.3856 17.2112C39.7652 17.7191 39.715 18.4393 39.2669 18.8873L34.9812 23.1729C34.2949 23.868 33.3423 24.2667 32.3631 24.2667C32.3596 24.2667 32.3604 24.2667 32.3527 24.2667C31.1142 24.2667 29.9676 23.6505 29.2769 22.6105L28.8955 22.0471L27.4603 23.0195L27.8373 23.575C28.8434 25.0944 30.53 26 32.35 26C32.3586 26 32.3595 26 32.3639 26C33.8025 26 35.2057 25.4133 36.2111 24.3941L40.4924 20.1128C41.5453 19.059 41.6658 17.3646 40.7722 16.1712Z" fill="#2424FF"></path><path d="M26.3118 23.7277C26.1497 22.9364 25.6895 22.2552 25.0439 21.8288L20.2113 18.3534L24.1226 15.9658C24.133 15.9606 24.1425 15.9537 24.1521 15.9476C24.2058 15.912 24.2578 15.8748 24.3107 15.834C24.9494 15.3427 25.3576 14.6319 25.4616 13.833C25.5648 13.0339 25.3515 12.2426 24.868 11.6143C23.906 10.3239 22.1016 10.0144 20.786 10.895L14.403 14.8781C13.2581 15.6417 12.5761 16.92 12.5786 18.2928C12.5769 19.67 13.2581 20.9474 14.3839 21.698L21.6656 26.8503C22.1813 27.1961 22.7663 27.3617 23.3453 27.3617C24.2692 27.3617 25.1783 26.9396 25.7684 26.1466C25.8057 26.0972 25.8403 26.0487 25.8715 26.001C26.317 25.3267 26.4739 24.519 26.3118 23.7277ZM24.3818 25.1091C23.971 25.6603 23.2005 25.793 22.6476 25.4229L15.365 20.2697C14.7046 19.8285 14.3103 19.0919 14.312 18.2937C14.3103 17.499 14.7037 16.7623 15.3424 16.335L21.7272 12.351C21.9464 12.2045 22.1952 12.1334 22.4422 12.1334C22.8383 12.1334 23.23 12.3163 23.4873 12.662C23.6963 12.9333 23.7873 13.2704 23.743 13.6102C23.6988 13.949 23.5254 14.2516 23.2559 14.4587L18.1937 17.5553C17.945 17.707 17.7898 17.9722 17.7786 18.2625C17.7683 18.5529 17.9034 18.8293 18.1392 18.9991L24.0611 23.257C24.3488 23.4469 24.5455 23.738 24.6149 24.076C24.6833 24.414 24.6166 24.7581 24.3818 25.1091Z" fill="#2424FF"></path><path d="M23.1572 14.6809L20.4868 19.5167L22.0042 20.3546L24.6746 15.5188L23.1572 14.6809Z" fill="#2424FF"></path><path d="M18.7346 23.8802L17.0015 27.3466L18.5517 28.1217L20.2849 24.6553L18.7346 23.8802Z" fill="#2424FF"></path><path d="M17.7786 25.1333H9.97864V26.8667H17.7786V25.1333Z" fill="#2424FF"></path><path d="M37.6886 13.6706L36.0012 14.063L44.6678 51.3311L46.3552 50.9387L37.6886 13.6706Z" fill="#2424FF"></path><path d="M22.9786 10.4H13.4452V12.1334H22.9786V10.4Z" fill="#2424FF"></path></svg>