<svg xmlns="http://www.w3.org/2000/svg" width="38" height="56" viewBox="0 0 38 56" fill="none"><path d="M33.3168 50.1279L33.3108 48.3436H33.5256C34.1295 48.3436 34.6193 47.8538 34.6193 47.2499V36.4788C34.6193 34.38 33.5093 32.3926 31.7224 31.2922L31.4227 31.1075C30.9084 30.7907 30.2347 30.9507 29.9177 31.465C29.6008 31.9792 29.7607 32.653 30.2751 32.97L30.575 33.1547C31.7204 33.8601 32.4319 35.1338 32.4319 36.4789V46.1562H27.4007V39.4396C27.4007 38.155 26.7752 36.9443 25.7277 36.2009L20.1586 32.2486C19.6661 31.8992 18.9834 32.015 18.6337 32.5076C18.2841 33.0003 18.4001 33.683 18.8927 34.0325L20.6741 35.2968V40.4813C20.6741 40.9787 20.532 41.4629 20.2634 41.8816L16.265 48.1116L11.9786 45.7674L14.8715 41.2167C15.6437 40.0021 15.7458 38.4961 15.1446 37.1884L13.6883 34.0196C12.763 32.0066 12.779 29.7049 13.7317 27.7048C13.7574 27.6507 13.777 27.5955 13.7933 27.5399H21.4582L23.5388 28.8214C23.7177 28.9315 23.9158 28.9839 24.1113 28.9839C24.4784 28.9839 24.8371 28.7992 25.0436 28.4636C25.3604 27.9492 25.2003 27.2755 24.6859 26.9587L23.1206 25.9948L24.5327 22.4046C24.5571 22.3425 24.616 22.3024 24.6826 22.3024H32.3823C34.7617 22.3024 36.6975 20.3666 36.6975 17.9871V9.51515C36.6975 9.22683 36.5851 8.96543 36.4028 8.76997C36.5914 8.36441 36.6975 7.91302 36.6975 7.43702V6.89015C36.6975 5.14124 35.2746 3.71827 33.5257 3.71827H32.253C30.5041 3.71827 29.0811 5.14124 29.0811 6.89015V7.43702C29.0811 7.92243 29.191 8.38257 29.3868 8.79426C29.2176 8.98687 29.1141 9.23865 29.1141 9.51515V12.9611L22.7565 9.64519C23.2599 9.06922 23.6429 8.37294 23.8537 7.58555L24.1407 6.51433C24.8791 3.75808 23.2374 0.915099 20.4813 0.176818C17.725 -0.561464 14.882 1.08004 14.1436 3.8364L13.8567 4.9074C13.5133 6.18949 13.6854 7.49007 14.2445 8.58907L4.79372 12.1855C3.10103 12.8174 1.84136 14.3128 1.50612 16.0884C1.23509 17.5243 1.58487 19.0167 2.46556 20.1828L6.58408 25.6348C6.62553 26.0873 6.76476 26.5377 7.01097 26.9542L7.28922 27.4251C7.72026 28.1545 8.40955 28.6723 9.23019 28.8833C9.49356 28.951 9.76033 28.9846 10.0255 28.9846C10.3738 28.9846 10.7191 28.9265 11.0495 28.8123C10.5937 30.8495 10.8096 32.9946 11.7005 34.9328L13.1569 38.1016C13.4465 38.7318 13.3973 39.4574 13.0252 40.0428L9.50548 45.5793C9.34328 45.8347 9.29384 46.1458 9.36942 46.4388C9.44478 46.7319 9.63826 46.9805 9.90383 47.1256L10.3289 47.358L7.65508 52.1171C7.35769 52.6463 7.25815 53.2398 7.35287 53.812H1.95325C1.34928 53.812 0.859497 54.3018 0.859497 54.9058C0.859497 55.5097 1.34928 55.9995 1.95325 55.9995H16.0038C16.385 55.9995 16.7388 55.801 16.9374 55.4756C17.4896 54.5708 17.6564 53.505 17.4071 52.4746C17.2456 51.8079 16.9225 51.2078 16.4695 50.7176L16.5126 50.6464C16.5528 50.6509 16.5933 50.6538 16.6336 50.6538C16.9949 50.6538 17.3469 50.4746 17.5549 50.1507L22.1041 43.0624C22.5994 42.2905 22.8613 41.3977 22.8613 40.4807V36.8486L24.4614 37.9843C24.932 38.3182 25.2128 38.862 25.2128 39.4391V47.2495C25.2128 47.7792 25.5895 48.2209 26.0896 48.3216V51.807C26.0896 52.2201 26.1505 52.63 26.2705 53.0254C26.3547 53.3026 26.465 53.5655 26.5981 53.812H23.6347C23.0307 53.812 22.5409 54.3018 22.5409 54.9058C22.5409 55.5097 23.0307 55.9995 23.6347 55.9995H36.0329C36.6368 55.9995 37.1266 55.5097 37.1266 54.9058C37.1266 52.5786 35.4957 50.6251 33.3168 50.1279ZM31.2685 6.89015C31.2685 6.34732 31.71 5.90577 32.2529 5.90577H33.5256C34.0684 5.90577 34.5099 6.34732 34.5099 6.89015V7.43702C34.5099 7.97985 34.0684 8.4214 33.5256 8.4214H32.2529C31.71 8.4214 31.2685 7.97985 31.2685 7.43702V6.89015ZM29.1143 15.4283V16.3512C29.1141 16.9552 29.6039 17.4449 30.2079 17.4449C30.8118 17.4449 31.3016 16.9552 31.3016 16.3512V10.609H32.2529H33.5256H34.5099V17.9869C34.5099 19.1602 33.5553 20.1147 32.3821 20.1147H24.6825C23.7105 20.1147 22.8526 20.6992 22.4969 21.6036L21.7689 23.4548L19.17 16.8316L22.3724 11.912L29.1143 15.4283ZM18.1881 14.3299L16.8949 11.0344C17.0951 11.1162 17.3018 11.1877 17.5161 11.2451C17.963 11.3649 18.4119 11.422 18.8539 11.422C19.3131 11.422 19.7645 11.3593 20.1982 11.242L18.1881 14.3299ZM15.9695 5.4733L16.2564 4.4023C16.463 3.63154 16.9572 2.98721 17.6483 2.58821C18.3394 2.18932 19.1446 2.08333 19.9151 2.28972C21.5063 2.71596 22.454 4.35713 22.0277 5.94821L21.7407 7.01943C21.5342 7.79019 21.04 8.43452 20.3489 8.83341C19.6579 9.23241 18.8526 9.3384 18.0821 9.13201C16.4912 8.70577 15.5434 7.06449 15.9695 5.4733ZM7.44836 23.1499L4.21097 18.8643C3.70106 18.1892 3.49872 17.3254 3.65545 16.4941C3.84948 15.4665 4.57869 14.6006 5.55858 14.2349L10.2686 12.4765V15.6066L8.24384 16.4047C7.48937 16.7021 7.00189 17.4183 7.00189 18.2293C7.00189 18.6503 7.13369 19.0519 7.38295 19.3908L9.25873 21.9424C9.24703 21.9492 9.235 21.9554 9.2233 21.9622L8.12758 22.6098C7.87109 22.7614 7.64458 22.9443 7.44836 23.1499ZM10.2686 17.958V19.623L9.31955 18.3321L10.2686 17.958ZM12.0689 25.4088C12.0035 25.6634 11.8428 25.8773 11.6162 26.0112L10.5207 26.6587C10.0537 26.9349 9.44861 26.7794 9.17244 26.3121L8.89408 25.8412C8.79608 25.6754 8.75025 25.4888 8.75823 25.3008C8.75845 25.2962 8.75823 25.2915 8.75834 25.2869C8.76195 25.2229 8.7719 25.1588 8.7882 25.0954C8.85372 24.8408 9.01428 24.6268 9.24069 24.4931L10.3365 23.8455C10.4902 23.7546 10.6617 23.7081 10.8356 23.7081C10.9177 23.7081 11.0005 23.7185 11.0822 23.7395C11.3369 23.805 11.5508 23.9656 11.6846 24.1921L11.9629 24.663C12.0968 24.8893 12.1343 25.1541 12.0689 25.4088ZM12.4562 11.6451L14.4729 10.8503L20.1634 25.352H14.2823C14.3209 24.7255 14.1725 24.1021 13.8461 23.5498L13.5679 23.079C13.292 22.6123 12.9102 22.2328 12.4562 21.9643V11.6451ZM15.2856 53.8125H9.9269C9.71811 53.8125 9.61103 53.6826 9.56575 53.6053C9.52047 53.528 9.45976 53.371 9.56203 53.189L12.2482 48.408L14.5492 49.6664L14.1121 50.3879C13.7999 50.9034 13.9635 51.5743 14.4779 51.8882C14.884 52.1361 15.1692 52.5272 15.2812 52.9895C15.3476 53.2644 15.3483 53.5447 15.2856 53.8125ZM31.6082 53.8125H30.2824C29.3933 53.8125 28.6222 53.2408 28.3638 52.39C28.3065 52.2009 28.2773 52.0049 28.2773 51.8074V48.3437H31.1233L31.1324 51.1031C31.1345 51.7058 31.6235 52.1933 32.2262 52.1933C33.3332 52.1933 34.2875 52.8598 34.7088 53.8125H31.6082Z" fill="#2424FF"></path></svg>