<svg xmlns="http://www.w3.org/2000/svg" width="45" height="45" viewBox="0 0 45 45" fill="none"><path d="M25.8198 38.0284C29.9399 38.0368 33.9478 36.6858 37.222 34.1849C40.4963 31.6839 42.854 28.1726 43.9297 24.1953C45.0054 20.2181 44.739 15.9971 43.1718 12.1866C41.6045 8.37619 38.8241 5.18919 35.2614 3.1197C31.6987 1.05022 27.5528 0.213842 23.4664 0.740236C19.38 1.26663 15.5814 3.12639 12.6595 6.03121C9.73756 8.93602 7.85553 12.7236 7.30515 16.8068C6.75476 20.8901 7.56678 25.0408 9.61531 28.6156L2.25731 35.9736C1.79857 36.4249 1.43373 36.9626 1.18384 37.5556C0.933939 38.1487 0.80393 38.7853 0.80131 39.4288C0.79869 40.0724 0.923509 40.7101 1.16857 41.3051C1.41363 41.9002 1.77408 42.4408 2.22912 42.8958C2.68417 43.3509 3.22481 43.7113 3.81986 43.9564C4.41491 44.2015 5.05259 44.3263 5.69612 44.3237C6.33965 44.321 6.97629 44.191 7.56932 43.9411C8.16236 43.6912 8.70005 43.3264 9.15137 42.8677L16.5061 35.5129C19.3358 37.1551 22.5482 38.0227 25.8198 38.0284ZM13.7444 7.2444C15.611 5.38165 17.8838 3.97677 20.3846 3.14001C22.8853 2.30324 25.546 2.05737 28.1577 2.42167C30.7694 2.78596 33.2612 3.75053 35.4376 5.23967C37.6139 6.72881 39.4155 8.70202 40.7011 11.0045C41.9867 13.3069 42.7212 15.8759 42.8471 18.5099C42.973 21.144 42.4868 23.7713 41.4266 26.1858C40.3664 28.6004 38.7612 30.7364 36.7368 32.4263C34.7124 34.1162 32.3239 35.314 29.7588 35.9257L9.20256 15.3694C9.93563 12.293 11.5079 9.48036 13.7444 7.2444ZM8.84425 17.3064L27.8194 36.2807C24.3247 36.6913 20.7889 36.0054 17.7013 34.3177L20.0673 31.9517C20.2196 31.7993 20.3052 31.5927 20.3052 31.3773C20.3052 31.1618 20.2196 30.9552 20.0673 30.8028L14.3213 25.0577C14.1689 24.9053 13.9623 24.8198 13.7469 24.8198C13.5314 24.8198 13.3248 24.9053 13.1724 25.0577L10.8072 27.4237C9.11952 24.3364 8.43352 20.8008 8.84425 17.3064ZM8.0025 41.7188C7.39299 42.3283 6.56632 42.6707 5.70434 42.6707C4.84237 42.6707 4.01569 42.3283 3.40619 41.7188C2.79668 41.1093 2.45426 40.2826 2.45426 39.4206C2.45426 38.5586 2.79668 37.732 3.40619 37.1225L13.7469 26.781L18.344 31.3773L8.0025 41.7188Z" fill="#2424FF"></path></svg>