<svg xmlns="http://www.w3.org/2000/svg" width="16" height="16" viewBox="0 0 16 16" fill="none"><path d="M15.6863 11.7012C13.5472 11.3492 12.5832 9.15807 12.5442 9.06507C12.5412 9.05906 12.5392 9.05307 12.5352 9.04706C12.4262 8.82505 12.4002 8.64205 12.4602 8.50304C12.5772 8.22903 13.0252 8.08702 13.3212 7.99302C13.4072 7.96601 13.4882 7.94001 13.5552 7.91401C13.8472 7.79901 14.0553 7.674 14.1933 7.53299C14.3573 7.36399 14.3893 7.20198 14.3873 7.09697C14.3823 6.84096 14.1863 6.61295 13.8733 6.50195C13.7682 6.45894 13.6472 6.43594 13.5252 6.43594C13.4422 6.43594 13.3182 6.44694 13.2012 6.50195C12.9512 6.61895 12.7272 6.68295 12.5342 6.69195C12.4322 6.68695 12.3602 6.66495 12.3132 6.64395C12.3192 6.54395 12.3252 6.44094 12.3322 6.33494L12.3352 6.28894C12.4042 5.20588 12.4892 3.85882 12.1312 3.05878C11.8862 2.51076 11.5571 2.03974 11.1521 1.65772C10.8131 1.3377 10.4191 1.07769 9.98108 0.885682C9.22004 0.549667 8.51001 0.499664 8.15399 0.499664H8.15299C8.13899 0.499664 8.12599 0.499664 8.11399 0.499664C8.01499 0.500664 7.85398 0.502664 7.83898 0.502664C7.48396 0.502664 6.77293 0.552667 6.0099 0.888683C5.57288 1.08069 5.18086 1.3397 4.84284 1.65972C4.43983 2.04174 4.11181 2.51176 3.8678 3.05778C3.50978 3.85682 3.59479 5.20388 3.66279 6.28593V6.28794C3.66979 6.40394 3.67779 6.52495 3.68479 6.64295C3.63279 6.66595 3.54779 6.69195 3.42278 6.69195C3.22077 6.69195 2.98076 6.62795 2.70975 6.50095C2.62975 6.46394 2.53874 6.44494 2.43874 6.44494C2.27773 6.44494 2.10672 6.49194 1.95971 6.57895C1.77371 6.68795 1.6537 6.84096 1.6207 7.01197C1.5997 7.12397 1.6007 7.34698 1.84871 7.573C1.98572 7.697 2.18572 7.81201 2.44474 7.91401C2.51274 7.94101 2.59374 7.96601 2.67875 7.99302C2.97476 8.08702 3.42378 8.22903 3.54079 8.50304C3.59979 8.64205 3.57379 8.82505 3.46478 9.04706C3.46178 9.05307 3.45878 9.05906 3.45678 9.06507C3.42878 9.12907 3.17377 9.7041 2.65075 10.3111C2.35373 10.6561 2.02672 10.9452 1.6787 11.1692C1.25368 11.4432 0.794662 11.6212 0.313641 11.7002C0.124632 11.7312 -0.0103739 11.8992 0.000626612 12.0902C0.00362675 12.1452 0.0166273 12.2002 0.0396284 12.2532V12.2542C0.116632 12.4332 0.29364 12.5842 0.581653 12.7172C0.933669 12.8802 1.45969 13.0173 2.14672 13.1243C2.18173 13.1903 2.21773 13.3553 2.24273 13.4683C2.26873 13.5883 2.29573 13.7123 2.33473 13.8433C2.37673 13.9853 2.48474 14.1553 2.76375 14.1553C2.86976 14.1553 2.99076 14.1313 3.13177 14.1043C3.33778 14.0643 3.61979 14.0093 3.97081 14.0093C4.16581 14.0093 4.36782 14.0263 4.57083 14.0603C4.96285 14.1253 5.30087 14.3633 5.69188 14.6393C6.26391 15.0433 6.91194 15.5004 7.90198 15.5004C7.92898 15.5004 7.95599 15.4994 7.98299 15.4974C8.01499 15.4994 8.05599 15.5004 8.09799 15.5004C9.08804 15.5004 9.73607 15.0433 10.3081 14.6403L10.3091 14.6393C10.7001 14.3643 11.0381 14.1263 11.4301 14.0613C11.6332 14.0273 11.8352 14.0103 12.0302 14.0103C12.3662 14.0103 12.6322 14.0533 12.8692 14.0993C13.0242 14.1293 13.1442 14.1443 13.2372 14.1443H13.2462H13.2552C13.4592 14.1443 13.6092 14.0323 13.6662 13.8373C13.7042 13.7083 13.7312 13.5883 13.7582 13.4653C13.7812 13.3593 13.8192 13.1893 13.8533 13.1233C14.5403 13.0153 15.0663 12.8792 15.4183 12.7162C15.7053 12.5832 15.8823 12.4322 15.9593 12.2542C15.9823 12.2012 15.9963 12.1462 15.9993 12.0892C16.0103 11.9002 15.8753 11.7312 15.6863 11.7012Z" fill="#2424FF"></path></svg>