<svg xmlns="http://www.w3.org/2000/svg" width="44" height="45" viewBox="0 0 44 45" fill="none"><path d="M42.7102 29.0312C42.2679 28.6864 41.6299 28.765 41.2848 29.2073L39.8566 31.0386H35.41L31.8585 18.8701C32.894 18.4762 33.6315 17.4737 33.6315 16.3017C33.6315 14.787 32.3993 13.5544 30.8841 13.5544H30.3069L29.571 11.0324C29.4135 10.494 28.8493 10.185 28.3114 10.3421C27.773 10.4992 27.464 11.0629 27.6211 11.6013L28.1912 13.5544H27.6496L23.8763 9.95328C23.9565 9.90289 24.0362 9.85092 24.114 9.79578C25.1879 9.03565 25.9012 7.90299 26.1226 6.60608C26.3444 5.30957 26.0476 4.00434 25.2875 2.93079C24.5274 1.85684 23.3947 1.14392 22.0978 0.922152C19.4211 0.464328 16.8713 2.27024 16.4139 4.94696C16.1377 6.56165 16.6864 8.12992 17.7524 9.22092C17.4696 9.35382 17.2038 9.50855 16.9566 9.68311C16.4805 8.68811 15.5597 7.92877 14.412 7.72287C13.4995 7.55942 12.5787 7.76413 11.8186 8.30011C11.0418 8.84799 10.5264 9.6724 10.3685 10.6214C10.267 11.2303 10.3253 11.831 10.5125 12.3785C10.4629 12.4023 10.4149 12.4289 10.3697 12.4606C10.1483 12.6153 9.99758 12.8522 9.95116 13.1188L8.52413 21.312C8.26745 22.7878 9.21761 24.1966 10.6423 24.4517L12.3526 24.7584C12.5069 24.7862 12.66 24.7997 12.8116 24.7997C12.9254 24.7997 13.0373 24.7897 13.148 24.7751L12.8314 29.6358L10.3665 34.7198C10.1329 35.2027 10.0142 35.7188 10.0142 36.2532C10.0142 36.7741 10.1333 37.2799 10.3475 37.7386H9.16842C8.97482 37.7386 8.78518 37.7941 8.62212 37.898L0.46975 43.0968C-0.0031507 43.3983 -0.142006 44.0263 0.159508 44.4992C0.353111 44.8027 0.681603 44.9689 1.01684 44.9689C1.2037 44.9689 1.39254 44.9174 1.56194 44.8094L9.46438 39.7698H13.3317C13.3979 39.7738 13.4638 39.7758 13.5297 39.7758C13.5844 39.7758 13.6388 39.7726 13.6931 39.7698H24.5222C24.7825 39.7698 25.0328 39.6698 25.2216 39.4905L31.9791 33.0703H34.642H34.6479H34.6515H40.3525C40.6651 33.0703 40.9607 32.9258 41.1531 32.6791L42.8864 30.457C43.2315 30.0143 43.1526 29.3763 42.7102 29.0312ZM17.301 25.2952C16.9078 25.2277 16.4726 25.1988 16.1151 25.0107C15.4831 24.6779 15.1626 23.9725 15.2796 23.2778C15.3122 23.0854 15.3455 22.8926 15.3784 22.7002C18.3245 22.5633 20.38 21.7349 21.757 20.851L21.519 22.2443C21.4428 22.6906 21.6713 23.1338 22.0792 23.3306L25.6945 25.0726L29.8955 30.3757C30.4057 31.02 30.297 31.959 29.6527 32.4692C29.0088 32.9794 28.0698 32.8703 27.5596 32.2264L23.9287 27.6434C23.8335 27.5228 23.7117 27.4256 23.5736 27.3589L20.5137 25.8843C20.428 25.843 20.3371 25.8141 20.2439 25.7982L17.301 25.2952ZM31.4876 29.1145L27.141 23.6273C27.0696 23.5377 26.9843 23.4615 26.8891 23.4012C26.8558 23.3802 26.8205 23.3603 26.784 23.3429L23.6502 21.8325L24.1259 19.0491H29.7947L33.2939 31.0386H32.2378C32.1882 30.3594 31.9418 29.6873 31.4876 29.1145ZM27.243 15.5856H29.5388C29.5408 15.5856 29.5428 15.586 29.5448 15.586C29.546 15.586 29.5472 15.5856 29.5484 15.5856H30.8841C31.2793 15.5856 31.6002 15.907 31.6002 16.3017C31.6002 16.6965 31.2793 17.0178 30.8841 17.0178H30.5755C30.5743 17.0178 30.5731 17.0178 30.5723 17.0178H23.6462L21.5928 15.248C21.1675 14.8822 20.5264 14.9298 20.1602 15.3547C19.794 15.7796 19.8416 16.4207 20.2665 16.7869L21.8729 18.1711C21.0691 19.0058 19.235 20.3809 15.7299 20.6443L16.1032 18.4603L16.8086 14.3351C16.809 14.3324 16.809 14.3296 16.8094 14.3268L17.0185 13.1033C17.2212 11.9183 18.2321 10.6737 20.4573 10.6737C20.5085 10.6737 20.5601 10.6745 20.6128 10.6757C20.6212 10.6761 20.6299 10.6761 20.6382 10.6761C21.3349 10.6761 21.9609 10.9165 22.4001 11.3525C22.4132 11.3656 22.4267 11.3783 22.4402 11.3906L26.5416 15.3047C26.7308 15.4853 26.9819 15.5856 27.243 15.5856ZM18.4162 5.28894C18.657 3.88056 19.8833 2.88278 21.2667 2.88278C21.4281 2.88278 21.5916 2.89627 21.7558 2.92444C22.5175 3.05457 23.1829 3.47351 23.6296 4.10431C24.0763 4.73511 24.2508 5.50238 24.1203 6.2641C23.8799 7.67249 22.6532 8.67066 21.2698 8.67026C21.1084 8.67026 20.9449 8.65677 20.7807 8.6286C19.208 8.36002 18.1472 6.86157 18.4162 5.28894ZM12.372 10.9554C12.4402 10.546 12.6592 10.1925 12.9889 9.96002C13.2317 9.78903 13.5138 9.69977 13.8026 9.69977C13.8859 9.69977 13.9696 9.70731 14.0533 9.72238C14.8571 9.8664 15.3975 10.6634 15.2582 11.4985C15.19 11.908 14.9706 12.2614 14.6409 12.4939C14.3283 12.7145 13.9506 12.7986 13.5769 12.732C12.7731 12.5876 12.2324 11.7905 12.372 10.9554ZM12.7112 22.7593L11.0009 22.4522C10.6728 22.3935 10.4594 22.038 10.5252 21.6599L11.7769 14.4728L14.6361 14.9858L14.1541 17.8065L13.386 22.2975C13.2853 22.6093 12.9957 22.8101 12.7112 22.7593ZM12.8854 37.5957C12.3672 37.3446 12.0455 36.83 12.0455 36.2528C12.0455 36.0275 12.0959 35.8093 12.1947 35.6053L14.7456 30.3431C14.8032 30.2253 14.8369 30.0972 14.8452 29.9662L15.0551 26.7476C15.8208 27.1864 16.7336 27.2586 17.5898 27.4054C17.7508 27.4327 17.9119 27.4605 18.073 27.4879L17.8445 30.7815L14.8762 36.905C14.6369 37.3982 14.1593 37.6989 13.6483 37.7386H13.4178C13.2377 37.7243 13.0575 37.679 12.8854 37.5957ZM24.1164 37.7386H16.7293L19.7579 31.4909C19.7789 31.4476 19.7964 31.4036 19.8111 31.3584C19.8357 31.2818 19.8515 31.2009 19.8575 31.1172L20.0785 27.9294L22.4814 29.0875L25.9675 33.4876C26.3682 33.9934 26.8812 34.3588 27.4429 34.5778L24.1164 37.7386Z" fill="#2424FF"></path></svg>