<svg xmlns="http://www.w3.org/2000/svg" width="42" height="52" viewBox="0 0 42 52" fill="none"><path d="M35.1266 28.6248C37.0717 27.7238 39.0084 27.0664 40.9109 26.6639C41.4596 26.5478 41.8103 26.0088 41.6942 25.46C41.5782 24.9113 41.0398 24.5605 40.4903 24.6767C38.2881 25.1426 36.0516 25.9219 33.8148 26.9989C32.5653 25.5087 31.1349 23.9505 29.5916 22.4073C27.9517 20.7674 26.2947 19.254 24.7206 17.9509C26.0828 16.2285 27.1946 14.3 28.0357 12.1895C29.3472 8.89874 30.0122 5.1391 30.0122 1.01465C30.0122 0.453719 29.5574 -0.000976562 28.9966 -0.000976562C28.4358 -0.000976562 27.981 0.453719 27.981 1.01465C27.981 7.36962 26.3515 12.6291 23.1336 16.6878C22.5264 16.2245 21.9376 15.7988 21.3753 15.4197C18.3653 13.3895 16.5726 12.9137 15.5705 13.8798C15.5634 13.8864 15.556 13.8929 15.5491 13.8997C15.5481 13.9007 15.5471 13.9016 15.5461 13.9025C15.5455 13.9031 15.5449 13.9038 15.5443 13.9044C15.2877 14.1616 15.1292 14.4727 15.0692 14.8439L0.0789049 50.5908C-0.0805482 50.971 0.00577987 51.4101 0.297366 51.7016C0.491756 51.8959 0.751553 51.9991 1.01582 51.9991C1.14805 51.9991 1.28151 51.9733 1.40836 51.9201C1.4112 51.9189 1.40836 51.9201 1.4112 51.9189L37.1552 36.9295C37.4941 36.8746 37.7821 36.7361 38.0255 36.517C38.0432 36.5023 38.0597 36.4867 38.0763 36.471C38.0828 36.4646 38.0898 36.4593 38.0962 36.4528C38.0972 36.4518 38.098 36.4507 38.0989 36.4498C38.1059 36.4429 38.1124 36.4354 38.1191 36.4282C39.0851 35.4261 38.6093 33.6334 36.5791 30.6236C36.15 29.9874 35.6624 29.3177 35.1266 28.6248ZM8.05532 44.7637C7.84336 46.0853 7.37201 46.9541 7.14522 47.3116L2.91219 49.0867L7.21123 38.8352C8.05237 40.9437 8.34396 42.9636 8.05532 44.7637ZM14.3051 41.3272C13.8956 43.6616 12.8095 44.7868 12.5006 45.0659L9.82434 46.1881C10.4193 44.0701 10.5757 40.7081 8.27642 36.295L11.32 29.0375C14.4779 35.0246 14.7149 38.9916 14.3051 41.3272ZM17.9279 42.7897L15.7388 43.7079C15.9474 43.1809 16.1314 42.5806 16.2646 41.9005C17.0775 37.7513 15.7505 32.6212 12.3225 26.6471L13.4214 24.0267C14.2912 25.0733 15.2822 26.5546 15.6836 27.4885C15.8488 27.8732 16.2235 28.1035 16.6171 28.1035C16.7509 28.1035 16.887 28.0768 17.0177 28.0207C17.533 27.7992 17.7712 27.202 17.5498 26.6866C16.9542 25.3009 15.4441 23.1447 14.2889 21.958L15.9681 17.9539C16.2622 18.4931 16.6265 19.084 17.0634 19.7318C17.3642 20.1779 17.6938 20.6403 18.0483 21.1156C21.5224 26.3873 21.4438 31.7832 20.7646 35.3835C20.0424 39.2129 18.4959 42.0165 17.9279 42.7897ZM25.7536 39.5082L20.932 41.5301C21.6282 40.003 22.3385 37.9982 22.7606 35.7601C23.232 33.2602 23.4393 29.9729 22.567 26.4229C23.0481 26.9312 23.543 27.4405 24.0507 27.9482C25.5699 29.4673 27.1033 30.8769 28.5723 32.1123C28.4266 36.9073 26.2273 39.0924 25.7536 39.5082ZM29.2545 38.0401C29.7981 36.9153 30.2782 35.4657 30.4923 33.6551C31.1053 34.1231 31.6998 34.5531 32.2671 34.9357C32.9152 35.3728 33.506 35.7369 34.0455 36.0311L29.2545 38.0401ZM32.8266 32.8531C30.6186 31.2887 28.012 29.0367 25.4871 26.5117C22.9623 23.9869 20.7101 21.3803 19.1458 19.1723C17.6331 17.0371 17.2254 15.9469 17.118 15.4746C17.5903 15.5821 18.6806 15.9897 20.8157 17.5024C21.1324 17.7268 21.4578 17.9665 21.7893 18.2179C21.7181 18.2912 21.6478 18.3653 21.5754 18.4377C21.1788 18.8343 21.1788 19.4774 21.5754 19.8741C21.7738 20.0723 22.0337 20.1716 22.2936 20.1716C22.5535 20.1716 22.8135 20.0723 23.0117 19.8741C23.1393 19.7465 23.2649 19.6172 23.3891 19.4867C24.9297 20.7602 26.5587 22.2471 28.1553 23.8438C29.5284 25.2168 30.8193 26.6135 31.9643 27.9575C31.7809 28.0593 31.5976 28.1629 31.4143 28.2687C30.9285 28.5493 30.7621 29.1704 31.0426 29.6561C31.2307 29.9819 31.572 30.1641 31.9231 30.1641C32.0954 30.1641 32.2701 30.1201 32.4299 30.0278C32.7119 29.8649 32.994 29.7086 33.276 29.5559C33.7173 30.1164 34.1268 30.6612 34.4966 31.1833C36.0095 33.3184 36.4171 34.4087 36.5244 34.881C36.0519 34.7734 34.9617 34.3657 32.8266 32.8531Z" fill="#2424FF"></path></svg>