<svg xmlns="http://www.w3.org/2000/svg" width="52" height="52" viewBox="0 0 52 52" fill="none"><path d="M1.074 50.8863C1.10771 50.9212 1.14063 50.955 1.17514 50.9879C1.32822 51.1346 1.49321 51.2675 1.6693 51.3857C1.69786 51.4047 1.7272 51.4194 1.75576 51.4376C1.91718 51.5368 2.08573 51.6236 2.25984 51.6974C2.29553 51.7121 2.32845 51.7295 2.36415 51.7434C2.55729 51.8207 2.75678 51.8818 2.96024 51.9262C3.00426 51.9358 3.0467 51.9417 3.09191 51.9496C3.28783 51.9857 3.48653 52.006 3.68602 52.0103H3.73996C3.94817 52.0079 4.15599 51.9885 4.36103 51.952C4.42092 51.9417 4.47962 51.9262 4.5403 51.9124C4.69814 51.8771 4.85322 51.8315 5.00472 51.7755C5.0654 51.7529 5.12608 51.7319 5.18596 51.7061C5.3914 51.6201 5.58812 51.5154 5.77412 51.3924L8.08909 49.9194C12.0682 47.4788 15.4726 44.2068 18.07 40.3276L18.6216 39.4769C18.812 39.1906 19.1328 39.0177 19.4771 39.0161H25.6688L22.4191 44.5157L21.3681 46.2945L21.3629 46.304C20.3163 48.028 20.8014 50.2692 22.4667 51.4063C23.3186 51.9615 24.3608 52.1436 25.3504 51.9096C26.3399 51.6756 27.1902 51.0462 27.7034 50.1681L33.2836 40.8674L39.0831 47.3863C39.745 48.1252 40.6905 48.5476 41.6824 48.5472C41.8954 48.5472 42.108 48.5278 42.3174 48.4885L48.5321 47.3161C50.5425 47.1036 52.0516 45.3811 51.9976 43.36C52.0329 42.4681 51.6672 41.6075 51.0014 41.013C50.3259 40.4085 49.4153 40.1377 48.519 40.2749C48.3874 40.2947 48.2477 40.3181 48.0998 40.3459L41.7927 41.5357C41.6277 41.5642 41.4595 41.5686 41.2933 41.5484C42.5557 40.3796 42.8393 38.4914 41.9751 37.0033L41.2017 35.6676L38.7626 31.4604C37.8469 29.8601 37.3265 28.0643 37.2456 26.2221L36.9466 19.4442C36.8681 17.7348 36.0122 16.1548 34.6233 15.1549C37.5514 14.6057 39.6752 12.0511 39.6804 9.07187C39.6788 8.66258 39.5788 8.25963 39.3893 7.89714C39.6181 7.67782 39.8132 7.42558 39.9679 7.14875C40.3237 6.52609 40.4129 5.78603 40.2146 5.09713C39.3464 1.94534 36.3906 -0.168145 33.1277 0.0293625C29.8165 0.0293625 27.3231 1.28738 26.2832 3.48098C25.4162 5.53538 25.77 7.9019 27.1997 9.61244C27.2176 9.91386 27.2592 10.2137 27.3239 10.5084C26.1709 9.85556 24.8233 9.63386 23.522 9.88292L15.9029 11.3408C15.1307 11.4892 14.4165 11.8528 13.8426 12.3902C11.5871 14.5057 11.4681 18.0478 13.5769 20.31L18.2952 25.3539L18.2353 25.4979C17.5591 27.099 16.7398 28.6354 15.7879 30.0898L10.989 37.3805C9.5692 39.5459 7.70518 41.385 5.5203 42.7755L3.68007 43.9399L1.67684 45.2098L1.65701 45.2229C0.733718 45.8285 0.13247 46.8176 0.0194386 47.9162C-0.0935927 49.0144 0.29349 50.1054 1.074 50.8863ZM4.82545 49.9448C3.92001 50.5556 2.69095 50.3168 2.08018 49.4114C1.46941 48.5059 1.70817 47.2773 2.61361 46.6661L3.91327 45.8467L6.18143 49.0854L4.82545 49.9448ZM24.9526 50.2272C24.4215 50.3541 23.8619 50.2554 23.407 49.9543C23.3007 49.8853 23.202 49.8052 23.1131 49.7152C22.4794 49.0156 22.3767 47.9844 22.8601 47.1742L23.2769 46.4678L23.4963 46.0978L27.0554 47.8773L26.2086 49.2888C25.9377 49.7616 25.4828 50.1011 24.9526 50.2264V50.2272ZM23.9127 23.0227C24.6436 23.8016 24.6202 25.0212 23.8599 25.7716H23.854C23.8417 25.7839 23.8227 25.8045 23.8052 25.8243C23.7501 25.8715 23.6922 25.9151 23.6323 25.9552C23.5827 25.9917 23.5367 26.0325 23.4848 26.0635C23.4328 26.0948 23.3983 26.1035 23.359 26.1241C23.2837 26.1654 23.2055 26.2015 23.1254 26.2324L23.1001 26.2388C22.9842 26.2784 22.8645 26.3074 22.7431 26.3252C22.6106 26.3427 22.4766 26.3478 22.3429 26.3399H22.337C21.8353 26.3102 21.3645 26.0896 21.0199 25.724L20.4012 25.062L23.2016 22.2628L23.9127 23.0227ZM38.0436 38.8435L40.1741 37.3535L40.4712 37.8663C40.7429 38.3395 40.8075 38.9034 40.6505 39.4258C40.5093 39.906 40.1896 40.3141 39.7573 40.5668L38.0436 38.8435ZM42.1155 43.2387L48.4179 42.0493C48.5424 42.0259 48.6602 42.0053 48.7721 41.9886C49.158 41.9307 49.5494 42.0461 49.8421 42.3039C50.1261 42.5534 50.2815 42.9178 50.2649 43.295C50.3049 43.876 50.1098 44.4487 49.7235 44.8846C49.3372 45.3204 48.7923 45.5826 48.2109 45.6127L41.9953 46.7851C41.3973 46.8973 40.7841 46.6887 40.3784 46.235L23.9527 27.7728C24.1019 27.7086 24.2466 27.6348 24.3858 27.5511L39.0133 42.2797C39.8231 43.0927 40.9836 43.4521 42.1111 43.2387H42.1155ZM33.4862 13.5313C31.5108 13.559 29.7423 12.3113 29.1058 10.4409H31.1265C32.0942 10.4366 32.8894 9.6751 32.9354 8.70819H37.5724C37.6644 8.70819 37.7565 8.70303 37.8477 8.69352C37.9107 8.80972 37.944 8.93981 37.9448 9.07187C37.9409 11.5344 35.9448 13.5293 33.4819 13.5313H33.4862ZM27.8549 4.22104C28.5922 2.65883 30.5113 1.76211 33.1277 1.76211C35.9321 1.76211 37.762 3.06178 38.5635 5.61232C38.6151 5.85702 38.5711 6.11243 38.4406 6.32541C38.2942 6.61295 38.0476 6.83623 37.7473 6.95363C37.6906 6.9679 37.6323 6.97544 37.574 6.97544H32.937C32.4809 6.93855 32.0307 7.09799 31.6996 7.41408C31.3688 7.73017 31.1883 8.17278 31.2042 8.63006C31.2034 8.67289 31.1689 8.707 31.1265 8.70819H28.6806C27.5682 7.49419 27.2473 5.75153 27.8541 4.22104H27.8549ZM14.8468 19.1229C13.3905 17.5591 13.473 15.1121 15.0316 13.6498C15.3663 13.3381 15.7832 13.1279 16.2333 13.0434L23.852 11.5855C24.8229 11.3979 25.8283 11.5899 26.6619 12.1217L29.9541 14.213L30.0616 14.2816L33.4268 16.4225C34.492 17.1031 35.1587 18.2603 35.2131 19.5231L35.5121 26.3002C35.6049 28.4201 36.2042 30.4872 37.2595 32.3286L39.3016 35.8512L36.8038 37.5962L32.5447 33.3082C32.8148 33.029 32.8656 32.6038 32.6692 32.2687L32.3809 31.7729L32.1636 31.0289C31.8415 29.9319 31.6559 28.8 31.6099 27.6578L31.5155 25.6649C31.4973 25.2845 31.2332 24.9605 30.8643 24.8665C30.4951 24.7721 30.108 24.93 29.9101 25.2552L27.8704 28.6029L25.6058 26.3236C26.5045 24.9054 26.326 23.058 25.1727 21.8381L22.7407 19.2391L23.8381 16.6398C23.9559 16.3539 23.9123 16.0271 23.7239 15.782C23.5355 15.5369 23.2309 15.4108 22.9244 15.4512L19.1781 15.9712C19.1368 15.9795 19.0964 15.991 19.0567 16.0049C19.0305 16.0128 19.004 16.0168 18.9778 16.0275C18.885 16.0644 18.7993 16.1175 18.7247 16.1841C18.7196 16.1893 18.7121 16.1901 18.7065 16.1952C18.7013 16.2008 18.691 16.2206 18.6807 16.2317C18.6216 16.2928 18.5721 16.3622 18.5336 16.438C18.5229 16.4598 18.5102 16.4788 18.5007 16.5014C18.4911 16.5236 18.4856 16.5256 18.4804 16.5395C18.4531 16.6208 18.4372 16.7057 18.4336 16.7913V16.8242C18.4344 16.9143 18.4487 17.0039 18.4761 17.0896C18.4832 17.1122 18.4911 17.1328 18.4995 17.1554C18.5372 17.253 18.5919 17.3426 18.6617 17.4203L21.0877 20.0197C21.0877 20.0197 21.096 20.0248 21.1004 20.0284L22.0205 20.9961L19.2169 23.7989L14.8468 19.1229ZM6.44795 44.2353C8.83946 42.7136 10.88 40.7008 12.4339 38.3307L17.2347 31.0376C18.1302 29.6642 18.9147 28.2222 19.5818 26.7246L19.7551 26.9082C20.3127 27.5015 21.052 27.893 21.8559 28.0215L32.0795 39.5106L27.9545 46.3873L24.385 44.6026L27.937 38.5961C28.0956 38.328 28.098 37.9956 27.9441 37.7255C27.7899 37.4554 27.5023 37.2885 27.1914 37.2885H19.4803C18.5546 37.2913 17.6912 37.7561 17.1792 38.5275L16.6232 39.3841C14.2669 42.8968 11.2056 45.8801 7.63339 48.1442L5.37276 44.9171L6.44795 44.2353Z" fill="#2424FF"></path></svg>