<svg xmlns="http://www.w3.org/2000/svg" width="52" height="52" viewBox="0 0 52 52" fill="none"><path d="M52 44.6904C52 44.4875 51.9247 44.2865 51.7802 44.1322C51.705 44.0512 51.7513 44.0938 50.3752 43.0618C49.3576 42.2984 48.7502 41.0836 48.7502 39.8119C48.7502 39.3632 48.3864 38.9995 47.9377 38.9995H47.6664C46.1168 35.25 45.2225 31.5806 44.7829 27.6228C46.0829 27.5727 47.1253 26.4999 47.1253 25.1878C47.1253 23.9279 46.147 22.7505 44.6005 22.7505C45.6561 21.7174 46.3128 20.2784 46.3128 18.6882C46.3128 15.5523 43.7617 13.0011 40.6257 13.0011C37.4897 13.0011 34.9386 15.5523 34.9386 18.6882C34.9386 20.2784 35.5953 21.7174 36.6509 22.7505C35.1077 22.7505 34.1261 23.9259 34.1261 25.1878C34.1261 26.4999 35.1685 27.5726 36.4685 27.6228C36.0804 31.1158 35.3465 34.3975 34.0389 37.8525C31.9258 33.0745 31.5583 29.5581 30.9832 25.8197C33.0553 24.9725 32.9839 22.0129 30.8763 21.2653V19.5007H31.6888C32.1374 19.5007 32.5012 19.1369 32.5012 18.6882C32.5012 18.2396 32.1374 17.8758 31.6888 17.8758H31.314L33.0406 13.9909C33.7572 12.3785 32.5751 10.5637 30.8132 10.5637H28.4389V8.12639H29.2513C30.5952 8.12639 31.6887 7.03293 31.6887 5.68904C31.6887 4.34514 30.5952 3.25169 29.2513 3.25169H28.4389V2.43924C28.4389 1.09535 27.3454 0.00189209 26.0015 0.00189209C24.6576 0.00189209 23.5642 1.09535 23.5642 2.43924V3.25169H22.7517C21.4078 3.25169 20.3144 4.34514 20.3144 5.68904C20.3144 7.03293 21.4078 8.12639 22.7517 8.12639H23.5642V10.5637H21.1898C19.4256 10.5637 18.2468 12.3808 18.9625 13.9909L20.689 17.8758H20.3143C19.8656 17.8758 19.5018 18.2396 19.5018 18.6882C19.5018 19.1369 19.8656 19.5007 20.3143 19.5007H21.1267V21.2653C19.0177 22.0134 18.9497 24.9732 21.0199 25.8197C20.3478 30.1883 20.0097 33.2273 17.9642 37.8525C16.6583 34.4024 15.923 31.1202 15.5345 27.6228C16.8345 27.5727 17.8769 26.4999 17.8769 25.1878C17.8769 23.9279 16.8986 22.7505 15.3521 22.7505C16.4077 21.7174 17.0645 20.2784 17.0645 18.6882C17.0645 15.5523 14.5133 13.0011 11.3773 13.0011C8.24138 13.0011 5.69018 15.5523 5.69018 18.6882C5.69018 20.2784 6.34695 21.7174 7.40252 22.7505C5.85927 22.7505 4.87773 23.9259 4.87773 25.1878C4.87773 26.4999 5.92011 27.5726 7.22013 27.6228C6.781 31.5745 5.88893 35.2436 4.33664 38.9995H4.06529C3.61661 38.9995 3.25284 39.3632 3.25284 39.8119C3.25284 40.4393 3.10446 41.0671 2.82366 41.6279C2.2914 42.6923 1.58894 43.091 0.328019 44.0366C0.235806 44.1051 0.14928 44.2053 0.0910887 44.3203C-0.0264117 44.5497 0.00303954 44.568 0.00303954 46.3115C0.00303954 47.6554 1.09649 48.7489 2.44039 48.7489H12.1898V49.5613C12.1898 50.9052 13.2832 51.9986 14.6271 51.9986H37.3757C38.7196 51.9986 39.813 50.9052 39.813 49.5613V48.7489H49.5624C50.9063 48.7489 51.9998 47.6554 51.9998 46.3115C52 45.3694 52 45.6373 52 44.6904ZM48.8334 43.8742H36.9968C36.7128 43.1041 36.5636 42.2821 36.5636 41.4368C36.5636 40.9881 36.1998 40.6244 35.7511 40.6244H47.1845C47.3642 41.8542 47.9462 43.0022 48.8334 43.8742ZM14.9357 47.124C16.1349 45.7511 16.86 44.0589 17.0274 42.2493H34.976C35.1433 44.0589 35.8685 45.7511 37.0678 47.124C34.4873 47.124 17.549 47.124 14.9357 47.124ZM36.5635 18.6882C36.5635 16.4483 38.3858 14.626 40.6257 14.626C42.8656 14.626 44.688 16.4483 44.688 18.6882C44.688 20.9282 42.8656 22.7505 40.6257 22.7505C38.3858 22.7505 36.5635 20.9282 36.5635 18.6882ZM35.751 25.1878C35.751 24.7399 36.1155 24.3754 36.5635 24.3754H44.688C45.1359 24.3754 45.5004 24.7399 45.5004 25.1878C45.5004 25.6358 45.1359 26.0003 44.688 26.0003C43.0424 26.0003 38.1927 26.0003 36.5635 26.0003C36.1155 26.0003 35.751 25.6358 35.751 25.1878ZM38.1031 27.6252H43.1485C43.5824 31.5363 44.3783 35.1156 45.9124 38.9995H35.3392C36.8773 35.1056 37.6702 31.5254 38.1031 27.6252ZM22.7518 19.5007H29.2514V21.1256H22.7518V19.5007ZM24.3767 6.50149H22.7518C22.3039 6.50149 21.9394 6.137 21.9394 5.68904C21.9394 5.24107 22.3039 4.87659 22.7518 4.87659H24.3767C24.8254 4.87659 25.1892 4.51281 25.1892 4.06414V2.43924C25.1892 1.99128 25.5537 1.62679 26.0016 1.62679C26.4496 1.62679 26.8141 1.99128 26.8141 2.43924V4.06414C26.8141 4.51281 27.1778 4.87659 27.6265 4.87659H29.2514C29.6994 4.87659 30.0639 5.24107 30.0639 5.68904C30.0639 6.137 29.6994 6.50149 29.2514 6.50149H27.6265C27.1778 6.50149 26.8141 6.86526 26.8141 7.31394V10.5637H25.1892V7.31394C25.1892 6.86526 24.8254 6.50149 24.3767 6.50149ZM21.19 12.1886H30.8134C31.4021 12.1886 31.7953 12.7922 31.5559 13.331L29.536 17.8758H22.4675L20.4475 13.331C20.2085 12.7931 20.6003 12.1886 21.19 12.1886ZM21.9394 22.7505H30.0639C30.5118 22.7505 30.8763 23.115 30.8763 23.5629C30.8763 24.0109 30.5118 24.3754 30.0639 24.3754H21.9394C21.4914 24.3754 21.1269 24.0109 21.1269 23.5629C21.1269 23.115 21.4914 22.7505 21.9394 22.7505ZM22.6365 26.0003H29.3669C30.0532 30.4615 30.5261 34.7954 33.5688 40.6244H18.4346C18.5355 40.4309 18.6313 40.2369 18.6582 40.1852C21.5258 34.5071 21.9817 30.2564 22.6365 26.0003ZM7.31529 18.6882C7.31529 16.4483 9.13761 14.626 11.3775 14.626C13.6175 14.626 15.4398 16.4483 15.4398 18.6882C15.4398 20.9282 13.6175 22.7505 11.3775 22.7505C9.13761 22.7505 7.31529 20.9282 7.31529 18.6882ZM6.50284 25.1878C6.50284 24.7399 6.86732 24.3754 7.31529 24.3754H15.4398C15.8877 24.3754 16.2522 24.7399 16.2522 25.1878C16.2522 25.6358 15.8877 26.0003 15.4398 26.0003C13.7943 26.0003 8.94455 26.0003 7.31529 26.0003C6.86732 26.0003 6.50284 25.6358 6.50284 25.1878ZM8.85498 27.6252H13.9003C14.3342 31.5363 15.1301 35.1156 16.6642 38.9995H6.09103C7.62909 35.1056 8.42204 31.5254 8.85498 27.6252ZM4.81904 40.6244H16.2522C15.8036 40.6244 15.4398 40.9881 15.4398 41.4368C15.4398 42.2821 15.2905 43.1041 15.0065 43.8742H3.16956C4.04193 43.0176 4.63481 41.8929 4.81904 40.6244ZM1.62814 46.3115V45.4991H14.1476C13.7103 46.1143 13.3793 46.4104 12.6658 47.124H2.44059C1.99263 47.124 1.62814 46.7595 1.62814 46.3115ZM38.1884 49.5613C38.1884 50.0093 37.8239 50.3738 37.3759 50.3738H14.6273C14.1794 50.3738 13.8149 50.0093 13.8149 49.5613V48.7489H38.1884V49.5613ZM50.3751 46.3115C50.3751 46.7595 50.0106 47.124 49.5626 47.124H39.3375C38.608 46.3945 38.2861 46.1045 37.8557 45.4991H50.3751V46.3115Z" fill="#2424FF"></path></svg>