<svg xmlns="http://www.w3.org/2000/svg" width="52" height="52" viewBox="0 0 52 52" fill="none"><path d="M51.1796 50.3755H44.5612C47.6707 47.4416 46.7102 42.3708 42.912 40.6823C42.8349 40.648 43.4327 40.827 33.8154 38.0147C33.8177 36.957 33.8261 36.0381 33.8408 35.2352H39.6945C43.0126 35.2352 44.7842 31.3899 42.7584 28.8616L41.2142 26.9304C40.934 26.5802 40.4228 26.5232 40.0726 26.8034C39.7222 27.0836 39.6652 27.5948 39.9454 27.9451L41.4902 29.8769C42.6766 31.3575 41.6376 33.6108 39.6945 33.6108C26.2998 33.6108 27.2308 33.6836 26.9858 33.4408C26.738 33.1909 26.8123 33.6462 26.8123 25.5676C28.0334 26.1938 28.4342 28.8699 28.4367 30.2218C28.4367 30.6703 28.8004 31.034 29.249 31.034H36.4049C37.0804 31.034 37.462 30.2529 37.0437 29.7201L33.1369 24.7443C32.86 24.3916 32.3495 24.3297 31.9965 24.6068C31.6436 24.8838 31.5822 25.3944 31.859 25.7472L33.067 27.2859C32.8801 27.9869 32.7294 28.6451 32.6079 29.4095H30.0261C29.8123 26.6439 28.7347 23.6539 26 23.8063C23.2645 23.6544 22.1882 26.6388 21.974 29.4095H19.3922C19.2708 28.6451 19.12 27.987 18.9331 27.2859L20.1411 25.7472C20.4181 25.3943 20.3565 24.8838 20.0036 24.6068C19.6506 24.3297 19.14 24.3914 18.8632 24.7443L14.9564 29.7201C14.5392 30.2515 14.9179 31.034 15.5953 31.034H22.7511C23.1991 31.034 23.5626 30.6705 23.5634 30.2225C23.5659 28.8604 23.9693 26.1925 25.1879 25.5676C25.1879 33.6358 25.2603 33.1927 25.0189 33.4362C24.7674 33.6857 25.7596 33.6108 12.3057 33.6108C10.3638 33.6108 9.32259 31.3585 10.5104 29.8762L17.0972 21.6395C18.7553 20.4554 20.7067 19.8302 22.7461 19.8302C29.3523 19.8302 31.7666 19.4148 34.8687 21.5957L35.7947 22.7547C36.0747 23.1053 36.586 23.1623 36.9362 22.8822C37.2867 22.6022 37.3438 22.0911 37.0638 21.7406C36.0047 20.4151 36.0347 20.4326 35.9067 20.3406C34.1105 19.0474 31.9801 18.3128 29.7751 18.2172C30.4478 17.4818 30.6267 16.8838 31.3056 15.3437C32.0187 13.7194 32.4139 11.9449 32.4139 10.1061C32.4139 8.20455 31.4292 6.36979 29.6134 5.22625C29.6134 3.55252 29.7987 2.30481 28.5549 1.05629C26.2955 -1.19404 22.3864 0.38121 22.3864 3.61364V5.22625C20.6965 6.29059 19.5859 8.06098 19.5859 10.1061C19.5859 11.9065 19.9588 13.6686 20.6947 15.3448C21.4281 17.0084 21.5843 17.5174 22.226 18.2184C19.9056 18.3228 17.7589 19.1304 16.0478 20.3936C15.9156 20.4915 16.3398 19.9851 9.24198 28.8609C7.1736 31.4425 9.04968 35.2352 12.3055 35.2352H18.1591C18.1738 36.0381 18.1822 36.957 18.1845 38.0147C8.55269 40.8313 9.16532 40.648 9.08846 40.682C5.28015 42.3721 4.33897 47.4522 7.44286 50.3755H0.820423C0.371861 50.3755 0.00817871 50.7392 0.00817871 51.1877C0.00817871 51.6363 0.371861 52 0.820423 52H51.1796C51.6282 52 51.9918 51.6363 51.9918 51.1877C51.9918 50.7392 51.6282 50.3755 51.1796 50.3755ZM34.3473 28.9167L34.7343 29.4095H34.2543C34.2836 29.2411 34.3145 29.0774 34.3473 28.9167ZM17.6526 28.9167C17.6855 29.0774 17.7163 29.2412 17.7456 29.4095H17.2656L17.6526 28.9167ZM24.011 3.61364C24.011 1.84985 26.1568 0.960544 27.4063 2.205C28.0887 2.89013 27.9889 3.5913 27.9889 4.49096C26.6976 4.10505 25.3044 4.10444 24.0109 4.49096V3.61364H24.011ZM22.5848 7.10578C25.0099 4.90135 29.1704 5.65968 30.4487 8.51746C28.2412 8.06372 26.849 8.95993 25.6926 9.70568C24.354 10.5693 23.3652 11.2062 21.2109 10.1339C21.2108 8.92582 21.7312 7.88178 22.5848 7.10578ZM21.3658 11.9665C23.5358 12.7527 24.8802 12.1628 26.573 11.0709C27.7691 10.2993 28.8148 9.62648 30.7871 10.2893C30.7437 12.9356 29.8476 14.6237 29.0972 16.3261C27.9984 18.8246 24.0005 18.8221 22.9025 16.3255C22.1508 14.6203 21.6468 13.6422 21.3658 11.9665ZM19.4715 47.9258C18.4792 48.422 17.3072 48.832 16.8937 50.3592H15.6088V46.9602L19.4715 47.9258ZM18.657 50.3592C18.9417 49.9368 18.9583 49.9987 22.1619 48.3968C22.1795 48.388 22.2186 48.3662 22.2458 48.3482C23.7702 47.332 23.984 47.0822 24.7667 47.0822C25.5738 47.0822 26.2871 47.5966 26.5416 48.3621L26.6296 48.6269C26.7636 49.0298 27.1855 49.2613 27.5974 49.1586L36.3912 46.9602V50.3593H18.657V50.3592ZM7.2067 46.0787C7.2067 44.391 8.19601 42.8776 9.70019 42.1882L19.1138 39.4356H27.9372C28.3858 39.4356 28.7495 39.0719 28.7495 38.6233C28.7495 38.1747 28.3858 37.8111 27.9372 37.8111H19.8085C19.8057 36.8406 19.7975 35.9889 19.7838 35.2352H24.5998C25.1132 35.2352 25.6014 35.0603 25.9995 34.7357C26.3952 35.0592 26.8849 35.2352 27.4 35.2352H32.2159C32.1958 36.3506 32.1904 37.5116 32.1904 38.6274C32.1911 38.7851 32.238 38.9432 32.33 39.079C32.5661 39.4275 31.9645 39.1661 42.2994 42.1882C44.9994 43.4281 45.6504 46.9949 43.5396 49.1057C42.7312 49.9141 41.6562 50.3593 40.5127 50.3593H38.0155V46.5542L38.8007 46.3579C39.2358 46.2491 39.5005 45.8081 39.3916 45.3729C39.2829 44.9378 38.8426 44.6732 38.4066 44.7818L27.902 47.4079C26.9362 45.4426 24.4794 44.9064 22.7589 46.0539L21.6469 46.7953L13.593 44.7818C13.158 44.6734 12.7168 44.9376 12.608 45.3729C12.4992 45.8081 12.7638 46.2491 13.1989 46.3579L13.9841 46.5542V50.3593H11.4871C9.12684 50.3592 7.2067 48.4391 7.2067 46.0787Z" fill="#2424FF"></path></svg>