<svg xmlns="http://www.w3.org/2000/svg" width="32" height="50" viewBox="0 0 32 50" fill="none"><path d="M31.7656 10.0098C31.7656 9.60527 31.4378 9.27734 31.0332 9.27734C30.6286 9.27734 30.3008 9.60527 30.3008 10.0098C30.3008 14.2426 27.019 17.7208 22.8667 18.0399C22.5384 16.9276 21.5083 16.1133 20.291 16.1133H15.4082C14.1813 16.1133 13.1447 16.9406 12.825 18.0664H6.13086C5.72695 18.0664 5.39844 17.7379 5.39844 17.334C5.39844 16.9301 5.72695 16.6016 6.13086 16.6016H7.5957C8.0002 16.6016 8.32812 16.2736 8.32812 15.8691V1.2207C8.32812 0.816211 8.0002 0.488281 7.5957 0.488281C7.19121 0.488281 6.86328 0.816211 6.86328 1.2207V4.24834L2.6376 4.80605C1.42783 4.96455 0.515625 6.00518 0.515625 7.22656C0.515625 7.70078 0.651855 8.15635 0.901465 8.54492C0.651855 8.93359 0.515625 9.38906 0.515625 9.86328C0.515625 11.0847 1.42783 12.1253 2.63691 12.2838C2.63691 12.2838 5.54561 12.6677 6.86328 12.8416V15.1367H6.13086C4.91924 15.1367 3.93359 16.1224 3.93359 17.334C3.93359 18.5456 4.91924 19.5312 6.13086 19.5312H12.7227V28.5645C12.7227 31.1428 14.636 33.2816 17.1172 33.6383V38.8184C17.1172 38.9558 17.0778 39.0905 17.0032 39.2085L12.836 45.8001C12.7619 45.9171 12.7227 46.0528 12.7227 46.1914V49.2676C12.7227 49.6721 13.0506 50 13.4551 50C13.8596 50 14.1875 49.6721 14.1875 49.2676V46.4035L18.2411 39.9916C18.4642 39.6393 18.582 39.2336 18.582 38.8184V33.6914H28.1035C28.5074 33.6914 28.8359 34.0199 28.8359 34.4238C28.8359 34.7426 28.6321 35.0226 28.3284 35.1205L20.5541 37.6331C20.2518 37.7308 20.047 38.0123 20.047 38.3301V41.2598C20.047 41.6643 20.3749 41.9922 20.7794 41.9922C21.1839 41.9922 21.5118 41.6643 21.5118 41.2598V38.8631L28.7787 36.5145C29.6891 36.2206 30.3008 35.3805 30.3008 34.4238C30.3008 33.2122 29.315 32.2266 28.1035 32.2266H22.9766V19.5033C27.8858 19.1281 31.7656 15.0136 31.7656 10.0098ZM3.93359 10.9773L2.82793 10.8313C2.34482 10.7681 1.98047 10.3519 1.98047 9.86328C1.98047 9.5709 2.11006 9.29619 2.33594 9.10967C2.50449 8.97051 2.60205 8.76338 2.60205 8.54482C2.60205 8.32637 2.50439 8.11924 2.33594 7.98008C2.11006 7.79365 1.98047 7.51895 1.98047 7.22656C1.98047 6.73799 2.34482 6.32178 2.82861 6.2584L3.93359 6.1126V10.9773ZM5.39844 11.1707V5.91924L6.86328 5.72588V11.3641L5.39844 11.1707ZM21.5117 32.2266H17.8496C15.8303 32.2266 14.1875 30.5838 14.1875 28.5645V21.7285C14.1875 21.0554 14.735 20.5078 15.4079 20.5078C15.7339 20.5078 16.0405 20.6348 16.2726 20.8669L17.2897 21.876C17.4824 22.0657 17.6767 22.1323 17.8495 22.1323C18.0767 22.1323 18.267 22.0174 18.3686 21.9158L19.4148 20.8654C19.6455 20.6349 19.952 20.5078 20.278 20.5078C20.9583 20.5078 21.5117 21.0554 21.5117 21.7285V32.2266ZM21.5117 19.3413C21.1417 19.1511 20.7224 19.043 20.278 19.043C19.5608 19.043 18.8864 19.3223 18.378 19.8305L17.8458 20.3648C17.6631 20.1835 17.4638 19.9854 17.3067 19.8294C16.7995 19.3223 16.1251 19.0429 15.4079 19.0429C14.9686 19.0429 14.554 19.1496 14.1875 19.3375V18.7988C14.1875 18.1257 14.7351 17.5781 15.4082 17.5781H20.291C20.9642 17.5781 21.5117 18.1257 21.5117 18.7988V19.3413Z" fill="#2424FF"></path></svg>