<svg xmlns="http://www.w3.org/2000/svg" width="26" height="36" viewBox="0 0 26 36" fill="none"><path d="M18.2812 9.49615C18.922 8.92288 19.3937 8.17783 19.6408 7.35938H23.6133C24.8733 7.35938 25.8984 6.33423 25.8984 5.07422C25.8984 3.81421 24.8733 2.78906 23.6133 2.78906H19.6984C19.3655 1.61832 18.2876 0.757812 17.0117 0.757812H8.88672C7.61084 0.757812 6.53253 1.61832 6.20007 2.78906H2.28516C1.02515 2.78906 0 3.81421 0 5.07422C0 6.33423 1.02515 7.35938 2.28516 7.35938H6.2572C6.50476 8.17783 6.97647 8.92288 7.61719 9.49615V13.707C7.61719 15.1563 8.19919 16.4714 9.14062 17.4335V33.6736L6.61465 34.5154C6.21555 34.6483 5.99973 35.08 6.13263 35.4791C6.23935 35.7981 6.5365 36 6.85547 36C6.93521 36 7.01654 35.9873 7.09628 35.9607L10.1432 34.9451C10.4542 34.8416 10.6641 34.5504 10.6641 34.2227V22.1403H22.0898C23.3499 22.1403 24.375 21.1151 24.375 19.8551C24.375 18.7633 23.5978 17.8199 22.5278 17.612L17.4156 16.6139C17.9619 15.7768 18.2812 14.7786 18.2812 13.7066V9.49615ZM24.375 5.07422C24.375 5.49435 24.0334 5.83594 23.6133 5.83594H19.8047V4.3125H23.6133C24.0334 4.3125 24.375 4.65408 24.375 5.07422ZM8.88672 2.28125H17.0117C17.7115 2.28125 18.2812 2.85056 18.2812 3.55078V5.83594H14.9805C14.2802 5.83594 13.7109 5.26624 13.7109 4.56641C13.7109 4.14548 13.3698 3.80469 12.9492 3.80469C12.5283 3.80469 12.1875 4.14548 12.1875 4.56641C12.1875 5.26624 11.6178 5.83594 10.918 5.83594H7.61719V3.55078C7.61719 2.85056 8.18649 2.28125 8.88672 2.28125ZM1.52344 5.07422C1.52344 4.65408 1.86502 4.3125 2.28516 4.3125H6.09375V5.83594H2.28516C1.86502 5.83594 1.52344 5.49435 1.52344 5.07422ZM10.918 7.35938C11.7178 7.35938 12.4394 7.02097 12.9492 6.48022C13.4586 7.02097 14.1807 7.35938 14.9805 7.35938H18.0143C17.7972 7.81561 17.4711 8.22028 17.0621 8.52774C16.8705 8.67136 16.7578 8.89709 16.7578 9.13672V12.9453H9.14062V9.13672C9.14062 8.89709 9.02795 8.67136 8.83633 8.52774C8.42691 8.22028 8.1008 7.81561 7.88419 7.35938H10.918ZM12.9492 17.5156C11.11 17.5156 9.57108 16.2048 9.21719 14.4688H16.6812C16.3274 16.2048 14.7885 17.5156 12.9492 17.5156ZM22.8516 19.8551C22.8516 20.2749 22.51 20.6169 22.0898 20.6169H10.6641V18.5233C11.3571 18.8534 12.132 19.0391 12.9492 19.0391C14.1723 19.0391 15.2994 18.6241 16.2 17.929L22.237 19.1077C22.5929 19.1767 22.8516 19.4909 22.8516 19.8551Z" fill="#2424FF"></path></svg>