<svg xmlns="http://www.w3.org/2000/svg" width="52" height="36" viewBox="0 0 52 36" fill="none"><path d="M49.888 31.5459H36.8463C37.4159 30.8428 38.1201 29.9094 38.8549 28.779C39.2283 28.2045 39.5852 27.6156 39.9159 27.0287C40.1223 26.6622 39.9926 26.1976 39.626 25.9911C39.2599 25.7849 38.795 25.9146 38.5885 26.281C38.3493 26.7058 38.0953 27.1317 37.831 27.552L37.3591 27.497C34.5904 27.0613 32.9945 26.5244 31.5173 24.7108C34.0431 22.3885 34.0074 19.7851 33.7904 17.4066L34.955 18.0205C36.3562 18.7592 38.0895 18.2241 38.8293 16.8209C39.5685 15.4185 39.032 13.6856 37.6295 12.9463C37.561 12.9101 37.631 12.9434 35.8267 12.237C36.8489 12.4873 37.915 12.416 38.8919 12.0329C39.1127 12.1225 39.3337 12.2375 39.5517 12.3782C41.0166 13.3232 41.8324 15.027 41.6805 16.8244C41.5071 18.8806 40.9817 20.9993 40.119 23.1219C39.9606 23.5117 40.1482 23.956 40.5379 24.1144C40.9254 24.2719 41.3712 24.0873 41.5303 23.6955C42.4508 21.4305 43.0121 19.1619 43.1986 16.9525C43.397 14.6014 42.3247 12.3664 40.3992 11.1125C41.461 10.1782 42.1328 8.81072 42.1328 7.2885V6.22209C42.1328 5.8457 42.0905 5.47916 42.0127 5.12583C43.7459 4.49157 44.2275 2.26745 42.9287 0.968468C41.7593 -0.200719 39.7796 0.0490229 38.9498 1.50076C38.3589 1.26056 37.7138 1.12701 37.0377 1.12701C34.2283 1.12701 31.9427 3.41267 31.9427 6.22209V7.2885C31.9427 8.64507 32.4766 9.87855 33.3442 10.7925C33.2458 10.9118 33.1527 11.0339 33.0661 11.1588L26.3084 8.51984C22.2749 6.94461 18.7033 6.9246 18.4888 6.89708C17.2753 6.83299 16.8288 8.4652 17.8992 9.02948L21.0955 10.7144C21.4679 10.9106 21.9285 10.7679 22.1246 10.3957C22.3208 10.0236 22.1781 9.56289 21.806 9.36667L20.2906 8.56788C22.1611 8.79173 23.9932 9.25119 25.7542 9.93888L36.9528 14.3123C37.5807 14.6657 37.8243 15.4602 37.4815 16.1103C37.1351 16.7676 36.3226 17.0193 35.6652 16.6727L24.9594 11.0291C24.5872 10.8329 24.1265 10.9755 23.9304 11.3479C23.7341 11.72 23.8768 12.1807 24.249 12.3769L32.179 16.5572C32.443 19.317 32.7309 21.5679 30.412 23.6548L16.0415 14.5251L14.7596 13.3805C14.155 12.8407 13.6147 12.2289 13.1536 11.5623L11.6242 9.35083C10.5087 7.73731 8.01521 8.85175 8.36195 10.72L9.13484 14.8836C9.31846 15.8731 10.0274 16.6802 10.9848 16.9901C11.4054 17.1561 12.1393 17.2436 12.9171 17.944L22.6626 27.0951C24.3135 28.6454 25.2338 29.8793 26.4058 31.5458H2.11209C0.947477 31.5459 0 32.4934 0 33.658C0 34.8226 0.947477 35.77 2.11199 35.77H49.888C51.0526 35.77 52 34.8226 52 33.658C52 32.4934 51.0526 31.5459 49.888 31.5459ZM33.4661 7.2886V6.2222C33.4661 6.08773 33.4742 5.95509 33.4888 5.82438H36.142C36.5146 5.82438 36.8176 6.12744 36.8176 6.49997C36.8176 7.03591 37.0128 7.55236 37.3671 7.95424L39.2497 10.0895C36.9271 11.928 33.4661 10.2765 33.4661 7.2886ZM41.8513 2.04574C42.3745 2.56909 42.1693 3.4662 41.4638 3.70355C41.152 3.15765 40.743 2.67431 40.2593 2.27842C40.5799 1.68652 41.3785 1.57297 41.8513 2.04574ZM37.0376 2.65055C39.0071 2.65055 40.6093 4.2527 40.6093 6.2222V7.2886C40.6093 7.86578 40.4708 8.41097 40.2267 8.8939L38.5098 6.94674C38.401 6.82324 38.3411 6.6647 38.3411 6.49997C38.3411 5.28741 37.3546 4.30094 36.142 4.30094H34.0292C34.6645 3.30948 35.7752 2.65055 37.0376 2.65055ZM11.4538 15.5407C11.0288 15.4031 10.7141 15.0448 10.6327 14.6056L9.85979 10.4419C9.80464 10.145 10.2093 9.98316 10.3712 10.2173L11.9006 12.4287C12.43 13.1944 13.0507 13.897 13.745 14.517L14.4849 15.1778L13.3543 16.3599C12.5399 15.815 11.8924 15.7028 11.4538 15.5407ZM27.9697 31.1224C26.7663 29.4033 25.7234 27.8796 23.7054 25.9845L14.5128 17.3525L15.699 16.1125L29.9425 25.1615C30.8611 26.4266 31.851 27.2938 33.0476 27.8838C34.168 28.436 35.4011 28.7225 36.8885 28.9648C36.0365 30.1699 35.2812 31.0596 34.8461 31.546H28.4358C28.2539 31.4412 28.0932 31.299 27.9697 31.1224ZM49.888 34.2465H2.11199C1.7874 34.2465 1.52344 33.9825 1.52344 33.658C1.52344 33.3334 1.7875 33.0693 2.11199 33.0693H49.888C50.2125 33.0693 50.4766 33.3334 50.4766 33.658C50.4766 33.9825 50.2125 34.2465 49.888 34.2465Z" fill="#2424FF"></path></svg>