<svg xmlns="http://www.w3.org/2000/svg" width="45" height="45" viewBox="0 0 45 45" fill="none"><path d="M41.5304 3.46905C37.2192 -0.842073 30.3891 -1.13492 25.7347 2.58891L23.8182 0.672457L21.9538 2.53688L23.8707 4.45377C22.4571 6.22371 21.5821 8.36077 21.343 10.6055L16.3605 15.588L18.5436 17.7711L0.935618 38.0701C-0.423699 39.7692 -0.288435 42.2107 1.25018 43.7493C2.78624 45.2854 5.22749 45.4253 6.92932 44.0639L27.2655 26.493L29.4115 28.6391L34.3939 23.6567C36.6386 23.4175 38.7756 22.5421 40.5455 21.1287L42.4625 23.0458L44.327 21.1814L42.4104 19.2648C46.1344 14.6104 45.8416 7.78017 41.5304 3.46905ZM39.666 5.33356C42.9478 8.61531 43.2358 13.7736 40.5314 17.3856L27.6139 4.46819C31.2259 1.76379 36.3843 2.05181 39.666 5.33356ZM5.26546 42.0181C4.6178 42.5229 3.69688 42.4671 3.1146 41.8849C2.53268 41.303 2.47669 40.3825 2.98075 39.7349L20.4127 19.6402L25.3962 24.6236L5.26546 42.0181ZM20.0894 15.5879L21.7853 13.892L22.1025 13.8722L31.1273 22.897L31.1075 23.2142L29.4116 24.9101L20.0894 15.5879ZM33.046 21.0869L23.9126 11.9535C23.8926 9.92215 24.5438 7.9476 25.7502 6.33331L38.6662 19.2493C37.0517 20.4557 35.0767 21.107 33.046 21.0869Z" fill="#2424FF"></path></svg>