<svg xmlns="http://www.w3.org/2000/svg" width="38" height="56" viewBox="0 0 38 56" fill="none"><path d="M36.2265 10.3906C35.7735 10.3906 35.4062 10.7578 35.4062 11.2109C35.4062 15.9515 31.7307 19.8472 27.0801 20.2047C26.7124 18.9589 25.5587 18.0468 24.1953 18.0468H23.8335C24.8994 17.0037 25.5625 15.5508 25.5625 13.9453V10.664C25.5625 7.49785 22.9866 4.92186 19.8204 4.92186C16.6541 4.92186 14.0782 7.49785 14.0782 10.664V13.9453C14.0782 15.5508 14.7413 17.0037 15.8072 18.0468H15.4454C14.0713 18.0468 12.9103 18.9734 12.5522 20.2343H7.51572V18.0041L11.2256 11.9322C11.2482 11.8951 11.2666 11.8568 11.2827 11.8178C12.0072 10.5821 12.4376 9.04593 12.4376 7.38278C12.4376 3.31186 9.8617 0 6.69541 0C3.52913 0 0.953247 3.31186 0.953247 7.38278C0.953247 9.04593 1.38353 10.5821 2.10813 11.8178C2.12432 11.8568 2.14259 11.8951 2.16523 11.9322L5.8751 18.0041V20.2343H5.05479C3.69778 20.2343 2.59387 21.3383 2.59387 22.6952C2.59387 24.0521 3.69778 25.1562 5.05479 25.1562H6.69541C7.14844 25.1562 7.51572 24.789 7.51572 24.3358V21.8749H12.4376V32.5389C12.4376 32.9921 12.8049 33.3592 13.2579 33.3592H14.0782V39.5424C14.0782 39.9955 14.4455 40.3627 14.8985 40.3627H15.7188V53.4944L12.9984 54.4012C12.5686 54.5444 12.3364 55.0091 12.4796 55.4388C12.5942 55.7826 12.9142 55.9999 13.2577 55.9999C13.3436 55.9999 13.4311 55.9862 13.5172 55.9576L16.7984 54.8638C17.1334 54.7521 17.3593 54.4387 17.3593 54.0856V40.3627H18.1796C18.6327 40.3627 18.9999 39.9955 18.9999 39.5424V37.6756C19.5415 37.7536 20.099 37.7536 20.6406 37.6756V39.5424C20.6406 39.9955 21.0078 40.3627 21.4609 40.3627H22.2812V54.0857C22.2812 54.4389 22.5071 54.7524 22.842 54.8639L26.1233 55.9577C26.2094 55.9863 26.2968 56 26.3828 56C26.7263 56 27.0463 55.7827 27.1609 55.4389C27.3042 55.0091 27.0719 54.5444 26.642 54.4013L23.9217 53.4946V40.3627H24.7422C25.1952 40.3627 25.5625 39.9955 25.5625 39.5424V33.3592H26.3828C26.8359 33.3592 27.2031 32.9921 27.2031 32.5389V21.8436C32.7015 21.4234 37.0468 16.815 37.0468 11.2109C37.0468 10.7578 36.6796 10.3906 36.2265 10.3906ZM5.8751 23.5155H5.05479C4.60242 23.5155 4.23448 23.1476 4.23448 22.6952C4.23448 22.2428 4.60242 21.8749 5.05479 21.8749H5.8751V23.5155ZM3.71178 11.3169L3.56511 11.0769C3.5498 11.0518 3.53317 11.0279 3.51567 11.005C2.93982 10.0162 2.59376 8.75522 2.59376 7.38289C2.59376 4.21672 4.43365 1.64073 6.6953 1.64073C8.95695 1.64073 10.7968 4.21672 10.7968 7.38289C10.7968 8.75522 10.4508 10.0161 9.87504 11.005C9.85754 11.0279 9.84091 11.0519 9.82549 11.077L9.67882 11.317C8.93059 12.4288 7.87031 13.1249 6.69541 13.1249C5.52051 13.1249 4.46023 12.4288 3.71178 11.3169ZM6.69541 16.2L5.75785 14.6655C6.06312 14.7302 6.37604 14.7655 6.69541 14.7655C7.01479 14.7655 7.3277 14.7302 7.63297 14.6655L6.69541 16.2ZM15.7188 10.664C15.7188 8.40237 17.5587 6.56247 19.8204 6.56247C22.082 6.56247 23.9219 8.40237 23.9219 10.664V10.9375H22.2661C21.6479 10.2457 20.7626 9.84371 19.8204 9.84371C18.8781 9.84371 17.9929 10.2457 17.3746 10.9375H15.7188V10.664ZM15.7188 13.9453V12.5781H17.7742C18.0478 12.5781 18.3035 12.4416 18.4558 12.2141C18.7617 11.7571 19.2718 11.4843 19.8204 11.4843C20.3689 11.4843 20.879 11.7571 21.1849 12.2141C21.3372 12.4416 21.5929 12.5781 21.8665 12.5781H23.9219V13.9453C23.9219 16.2069 22.082 18.0468 19.8204 18.0468C17.5587 18.0468 15.7188 16.2069 15.7188 13.9453ZM23.9219 38.7221H22.2813V36.6326C22.2813 36.3663 22.152 36.1166 21.9346 35.9628C21.7171 35.8091 21.4386 35.7706 21.1875 35.8592C20.3079 36.1703 19.3328 36.1703 18.4532 35.8592C18.2021 35.7705 17.9236 35.8091 17.7061 35.9628C17.4887 36.1166 17.3594 36.3663 17.3594 36.6326V38.7221H15.7188V33.3592H23.9219V38.7221ZM25.5625 31.7186H14.0782V25.1562H25.5625V31.7186ZM25.5625 23.5155H14.0782V21.0546C14.0782 20.3007 14.6915 19.6874 15.4454 19.6874H24.1953C24.9493 19.6874 25.5625 20.3007 25.5625 21.0546V23.5155Z" fill="#2424FF"></path></svg>