<svg xmlns="http://www.w3.org/2000/svg" width="50" height="48" viewBox="0 0 50 48" fill="none"><path d="M47.3161 29.8201C48.6499 27.5282 49.5381 24.9471 49.8619 22.1954C49.8631 22.1866 49.8639 22.1779 49.8651 22.1692C49.9531 21.4114 49.9999 20.641 49.9999 19.8598C49.9999 14.7016 48.0226 9.99677 44.7869 6.46231C44.7354 6.39011 44.6747 6.32425 44.6056 6.26752C42.5038 4.03195 39.8917 2.28119 36.9563 1.20526C36.9035 1.18146 36.8488 1.16162 36.7928 1.14734C34.712 0.405457 32.4729 0 30.1401 0C27.5384 0 25.0521 0.503845 22.7729 1.41751C22.711 1.43616 22.6515 1.46075 22.5939 1.49091C19.7914 2.64618 17.3095 4.42511 15.3211 6.65353C15.256 6.71106 15.1981 6.77573 15.1493 6.84714C12.1179 10.3352 10.2803 14.8868 10.2803 19.8598C10.2803 20.6053 10.3231 21.3412 10.4037 22.0656C10.4044 22.0748 10.4056 22.0835 10.4068 22.0922C10.5544 23.407 10.8309 24.6829 11.2233 25.9076L0.554871 36.576C0.158142 36.9727 0.158142 37.6158 0.554871 38.0125C0.753235 38.2109 1.01309 38.3101 1.27295 38.3101C1.53281 38.3101 1.79266 38.2109 1.99103 38.0125L12.0195 27.9844C12.2988 28.6045 12.6091 29.2083 12.9483 29.7927C12.9792 29.8625 13.0185 29.928 13.0641 29.9887C15.5818 34.2166 19.6236 37.4349 24.4264 38.8806L17.2718 46.0348C16.8755 46.4315 16.8755 47.0746 17.2718 47.4713C17.4702 47.6697 17.7304 47.7689 17.9903 47.7689C18.2502 47.7689 18.51 47.6697 18.7084 47.4713L26.7505 39.4289C27.8526 39.6193 28.9848 39.7197 30.1401 39.7197C37.3745 39.7197 43.7169 35.8305 47.1891 30.0339C47.2399 29.9681 47.2827 29.8967 47.3161 29.8201ZM38.5285 29.8602L34.9151 24.2996L36.8365 18.3864L41.4032 17.3608L42.5914 17.0942L47.7834 22.4259C47.468 24.6047 46.7571 26.6574 45.7256 28.5085L38.5285 29.8602ZM25.3655 24.2996L21.7537 29.8574L14.5344 28.472C13.5001 26.6054 12.7916 24.5345 12.4845 22.3366L17.6832 17.0927L23.4441 18.3864L24.7244 22.3271L25.3655 24.2996ZM15.3572 9.90393L16.2733 15.6299L12.3147 19.623C12.3619 16.029 13.4763 12.6878 15.3572 9.90393ZM27.219 23.4312L25.425 17.9099L30.1215 14.498L34.8179 17.9103L33.0239 23.4312H27.219ZM47.9667 19.7027L43.9875 15.6164L44.6909 9.5687C46.7261 12.4382 47.9338 15.9326 47.9667 19.7027ZM42.8965 7.41803L41.9975 15.1459L39.8123 15.6363L36.2747 16.4305L31.1744 12.7251V7.22681L36.6865 3.27618C39.0435 4.21008 41.1545 5.63275 42.8965 7.41803ZM34.2637 2.51367L30.0973 5.49985L25.4524 2.65808C26.9468 2.25024 28.5183 2.03125 30.1401 2.03125C31.5592 2.03125 32.9398 2.19867 34.2637 2.51367ZM22.9875 3.53088L29.1058 7.27441V12.7251L25.5083 15.3387L24.0059 16.4305L18.2517 15.1388L17.0695 7.7489C18.7219 5.9668 20.7329 4.52231 22.9875 3.53088ZM16.105 30.8417L21.5851 31.8938L24.376 36.7315C21.0788 35.602 18.2144 33.5315 16.105 30.8417ZM27.1254 37.4321L23.4235 31.0154L27.0321 25.4624H33.2481L36.8567 31.0154L33.1556 37.4317C32.1749 37.5995 31.1676 37.688 30.1401 37.688C29.1126 37.6884 28.1057 37.5999 27.1254 37.4321ZM35.9046 36.7315L38.694 31.8958L44.153 30.8702C42.0459 33.5462 39.1903 35.606 35.9046 36.7315Z" fill="#2424FF"></path></svg>