<svg xmlns="http://www.w3.org/2000/svg" width="41" height="53" viewBox="0 0 41 53" fill="none"><path d="M38.0312 22.3594H37.2031V19.875C37.2031 18.5053 36.0885 17.3906 34.7188 17.3906C33.349 17.3906 32.2344 18.5053 32.2344 19.875V22.5117C31.2729 22.8546 30.5781 23.7655 30.5781 24.8438V26.784C30.5781 27.8904 31.0096 28.9305 31.7913 29.7123L32.1756 30.0965L31.5462 33.872C29.4908 29.338 25.433 26.0445 20.4916 24.9729L20.1603 23.6504C22.1205 22.925 23.5805 21.1718 23.8869 19.046H23.9531C25.78 19.046 27.2656 17.5604 27.2656 15.7335C27.2656 15.0578 27.0603 14.4309 26.7124 13.9067L26.9766 12.8508C27.1687 12.0832 27.2665 11.294 27.2665 10.5039C27.2656 5.16833 22.9254 0.828125 17.589 0.828125H15.4102C10.0746 0.828125 5.73438 5.16833 5.73438 10.5048C5.73438 11.2948 5.83127 12.084 6.02422 12.8517L6.28839 13.9084C5.93975 14.4317 5.73438 15.0595 5.73438 15.7344C5.73438 17.5612 7.22003 19.0469 9.04688 19.0469H9.11312C9.41953 21.1727 10.8795 22.925 12.8397 23.6512L12.5126 24.958C5.77992 26.1977 0.765625 32.1437 0.765625 39.0403V43.0625C0.765625 48.0851 4.85242 52.1719 9.875 52.1719H17.3281C18.9711 52.1719 20.3276 50.9678 20.586 49.3977C21.5632 49.0474 22.5826 48.8594 23.626 48.8594H27.2656V47.0069L28.42 48.3915C29.5455 49.7413 31.1984 50.5156 32.9557 50.5156C36.211 50.5156 38.8594 47.8673 38.8594 44.6119V30.1553L39.3024 29.7123C40.0842 28.9305 40.5156 27.8904 40.5156 26.784V24.8438C40.5156 23.474 39.401 22.3594 38.0312 22.3594ZM34.7188 19.0469C35.1759 19.0469 35.5469 19.4179 35.5469 19.875V22.5117C35.2372 22.6219 34.9581 22.79 34.7188 23.0053C34.4794 22.7892 34.2003 22.6219 33.8906 22.5117V19.875C33.8906 19.4179 34.2616 19.0469 34.7188 19.0469ZM17.2196 45.5469C16.919 44.5879 16.0213 43.8906 14.9638 43.8906C14.0628 43.8906 13.2537 44.3908 12.8496 45.1974L12.6757 45.5469H10.7031V37.2656H12.6865C14.3303 37.2656 15.9253 37.7136 17.3281 38.5558V45.5469H17.2196ZM14.9713 27.4896L12.713 29.2957L11.7283 26.8337C12.1656 26.7128 12.6103 26.611 13.0658 26.5364L14.9713 27.4896ZM16.2971 32.2969H16.7037L18.066 37.0652C17.1849 36.551 16.2408 36.1717 15.2595 35.9282L16.2971 32.2969ZM16.8163 30.6406H16.1837L15.4698 29.2129L16.5 28.389L17.5302 29.2129L16.8163 30.6406ZM18.0287 27.4896L19.9235 26.5422C20.3756 26.6333 20.8187 26.746 21.2543 26.8768L20.2862 29.2957L18.0287 27.4896ZM22.2969 14.0781C22.2969 14.9915 21.554 15.7344 20.6406 15.7344C19.7272 15.7344 18.9844 14.9915 18.9844 14.0781C18.9844 13.1647 19.7272 12.4219 20.6406 12.4219C21.554 12.4219 22.2969 13.1647 22.2969 14.0781ZM23.9531 17.3906V14.0781C24.8665 14.0781 25.6094 14.821 25.6094 15.7344C25.6094 16.6478 24.8665 17.3906 23.9531 17.3906ZM15.411 2.48438H17.5898C22.0112 2.48438 25.6094 6.08258 25.6094 10.5048C25.6094 11.159 25.5282 11.814 25.37 12.4509L25.3038 12.7167C24.8897 12.5304 24.4351 12.4219 23.9531 12.4219H23.9125C23.7097 10.5362 22.2455 8.99261 20.3268 8.75328L19.8895 8.69862C18.4287 8.51561 17.3281 7.26845 17.3281 5.79688H15.6719C15.6719 8.10238 17.3969 10.0568 19.6833 10.3416L20.1206 10.3963C20.5272 10.4476 20.8957 10.6025 21.2153 10.8228C21.0274 10.7905 20.8377 10.7656 20.6406 10.7656C19.1011 10.7656 17.8159 11.8248 17.4457 13.25H15.5543C15.1841 11.8248 13.8989 10.7656 12.3594 10.7656C11.7689 10.7656 11.2232 10.9337 10.742 11.2045C10.9259 10.0476 11.9039 9.15906 13.1022 9.11766C13.5925 10.0452 14.3096 10.8526 15.2123 11.4546L16.1307 10.0766C14.8065 9.19384 14.0156 7.71564 14.0156 6.12398V5.79688H12.3594V6.12398C12.3594 6.60016 12.4198 7.06639 12.5209 7.52103C10.5557 7.84152 9.04688 9.53917 9.04688 11.5938V12.4219C8.56491 12.4219 8.11027 12.5304 7.6962 12.7167L7.62995 12.4509C7.47178 11.814 7.39062 11.159 7.39062 10.5048C7.39062 6.08258 10.9888 2.48438 15.411 2.48438ZM12.3594 12.4219C13.2728 12.4219 14.0156 13.1647 14.0156 14.0781C14.0156 14.9915 13.2728 15.7344 12.3594 15.7344C11.446 15.7344 10.7031 14.9915 10.7031 14.0781C10.7031 13.1647 11.446 12.4219 12.3594 12.4219ZM7.39062 15.7344C7.39062 14.821 8.13345 14.0781 9.04688 14.0781V17.3906C8.13345 17.3906 7.39062 16.6478 7.39062 15.7344ZM10.7031 18.2188V16.9302C11.1925 17.2151 11.7532 17.3906 12.3594 17.3906C13.8989 17.3906 15.1841 16.3315 15.5543 14.9062H17.4457C17.8159 16.3315 19.1011 17.3906 20.6406 17.3906C21.2468 17.3906 21.8075 17.2151 22.2969 16.9302V18.2188C22.2969 20.5019 20.4394 22.3594 18.1562 22.3594H14.8438C12.5606 22.3594 10.7031 20.5019 10.7031 18.2188ZM14.8438 24.0156H18.1562C18.2854 24.0156 18.413 24.0049 18.5397 23.9966L18.8477 25.228L16.5 26.4023L14.1523 25.228L14.4603 23.9966C14.587 24.0049 14.7146 24.0156 14.8438 24.0156ZM2.42188 43.0625V39.0403C2.42188 33.8869 5.5878 29.3297 10.1624 27.3778L12.0058 31.9855L14.1481 30.2721L14.7883 31.5516L13.6156 35.6549C13.3068 35.6276 12.9979 35.6094 12.6865 35.6094H9.04688V45.3945C8.08542 45.0517 7.39062 44.1407 7.39062 43.0625V33.9531H5.73438V43.0625C5.73438 45.3456 7.59186 47.2031 9.875 47.2031H12.3594V50.5156H9.875C5.76502 50.5156 2.42188 47.1725 2.42188 43.0625ZM17.3281 50.5156H14.0156V46.5704L14.332 45.9378C14.452 45.6968 14.6947 45.5469 14.9647 45.5469C15.3539 45.5469 15.6719 45.8649 15.6719 46.2541V47.2031H17.3281C18.2415 47.2031 18.9844 47.946 18.9844 48.8594C18.9844 49.7728 18.2415 50.5156 17.3281 50.5156ZM25.6094 47.2031H23.626C22.5296 47.2031 21.4555 47.3712 20.4195 47.6983C20.1495 46.9812 19.6386 46.3891 18.9844 46.0073V38.5558C20.388 37.7136 21.9822 37.2656 23.626 37.2656H25.6094V47.2031ZM32.9557 48.8594C31.692 48.8594 30.5019 48.302 29.6929 47.3307L27.2656 44.4181V35.6094H23.626C22.2331 35.6094 20.87 35.8827 19.598 36.4011L18.2126 31.5507L18.8527 30.2713L20.9951 31.9847L22.8103 27.4474C26.6122 29.0987 29.533 32.3408 30.7396 36.4441L30.9806 37.2631L29.7608 44.5829L31.3947 44.8546L33.7639 30.6406H37.2031V44.6119C37.2031 46.9539 35.2976 48.8594 32.9557 48.8594ZM38.1315 28.5413L37.6884 28.9844H33.4053L32.9623 28.5413C32.4936 28.0718 32.2344 27.4482 32.2344 26.784V24.8438C32.2344 24.3866 32.6054 24.0156 33.0625 24.0156C33.5196 24.0156 33.8906 24.3866 33.8906 24.8438C33.8906 26.2135 35.0053 27.3281 36.375 27.3281H38.8006C38.6987 27.7844 38.4693 28.2035 38.1315 28.5413ZM38.8594 25.6719H36.375C35.9179 25.6719 35.5469 25.3009 35.5469 24.8438C35.5469 24.3866 35.9179 24.0156 36.375 24.0156H38.0312C38.4884 24.0156 38.8594 24.3866 38.8594 24.8438V25.6719Z" fill="#2424FF"></path></svg>