<svg xmlns="http://www.w3.org/2000/svg" width="50" height="44" viewBox="0 0 50 44" fill="none"><path d="M49.3357 32.4146L41.2107 7.22712C41.1775 7.12431 41.1242 7.02914 41.0538 6.94718C40.9835 6.86522 40.8975 6.79811 40.8008 6.74978L34.5924 3.64562C34.5681 3.61189 34.5412 3.58008 34.512 3.55046L32.0745 1.11296C31.999 1.03762 31.9094 0.977883 31.8108 0.937174C31.7122 0.896466 31.6066 0.875581 31.5 0.875711V0.875H18.5V0.876015C18.3933 0.875673 18.2876 0.896432 18.189 0.937097C18.0904 0.977763 18.0008 1.03753 17.9254 1.11296L15.5812 3.45723L9.19907 6.64832C9.10244 6.69664 9.01641 6.76374 8.94603 6.8457C8.87565 6.92767 8.82232 7.02284 8.78916 7.12566L0.664159 32.3132C0.630468 32.4177 0.618328 32.528 0.628472 32.6374C0.638617 32.7468 0.670836 32.853 0.723182 32.9495C0.775528 33.0461 0.846913 33.1311 0.933023 33.1993C1.01913 33.2675 1.11818 33.3175 1.22418 33.3464L10.1617 35.7839C10.3571 35.8375 10.5655 35.8161 10.746 35.7238C10.9264 35.6316 11.0658 35.4751 11.1367 35.2853L14.3311 26.7668L14.4375 27.7326V30.8797L14.1607 32.8188L12.2919 34.3758C12.1513 34.4931 12.0543 34.6544 12.0168 34.8337C11.9794 35.0129 12.0035 35.1996 12.0855 35.3634L13.4159 38.0248L12.8201 42.1976C12.8036 42.3129 12.8121 42.4304 12.845 42.5421C12.8779 42.6538 12.9345 42.7571 13.0108 42.8451C13.0871 42.933 13.1815 43.0035 13.2874 43.0518C13.3934 43.1001 13.5085 43.1251 13.625 43.125H36.375C36.4914 43.125 36.6064 43.1 36.7123 43.0517C36.8182 43.0033 36.9125 42.9328 36.9888 42.8449C37.065 42.7569 37.1215 42.6536 37.1544 42.542C37.1873 42.4303 37.1958 42.3129 37.1793 42.1976L36.5835 38.0247L37.9139 35.3638C37.9958 35.2 38.02 35.0133 37.9825 34.834C37.945 34.6548 37.8481 34.4934 37.7074 34.3762L35.8391 32.8193L35.5625 30.8797V27.7281L35.6581 26.7715L38.8632 35.3849C38.9338 35.5751 39.073 35.732 39.2535 35.8247C39.4339 35.9173 39.6426 35.939 39.8382 35.8854L48.7757 33.4479C48.8817 33.419 48.9807 33.3689 49.0668 33.3007C49.1528 33.2325 49.2242 33.1475 49.2765 33.0509C49.3288 32.9543 49.3609 32.8482 49.371 32.7388C49.3811 32.6294 49.369 32.5192 49.3352 32.4146H49.3357ZM32.8151 4.15171L17.0863 21.4535C17.0059 21.542 16.9459 21.6472 16.9108 21.7615C16.8757 21.8758 16.8663 21.9965 16.8832 22.1149L17.5637 26.875H15.9771L15.2856 20.651L31.5267 2.86329L32.8151 4.15171ZM17.3929 30.125H16.0625V28.5H19.3429L17.3929 30.125ZM24.5297 8.11641L20.1612 2.5H29.6578L24.5297 8.11641ZM18.4237 2.91285L23.418 9.33414L22.1897 10.6794L17.1441 4.19234L18.4237 2.91285ZM9.87425 34.0214L2.47187 32.0024L10.2312 7.94913L15.8302 5.14956L21.0782 11.897L15.08 18.4664L14.4343 11.364C14.4135 11.1504 14.309 10.9538 14.1438 10.8169C13.9785 10.6801 13.7658 10.6142 13.5521 10.6336C13.3384 10.653 13.1411 10.7562 13.0032 10.9206C12.8653 11.085 12.798 11.2972 12.816 11.511L13.6285 20.4485C13.6285 20.4515 13.6294 20.4543 13.6297 20.4573C13.63 20.4602 13.6297 20.4622 13.6297 20.4647L13.9333 23.1967L9.87425 34.0214ZM21.75 28.6098V31.3595L14.7147 36.9877L13.827 35.2122L21.75 28.6098ZM14.5618 41.5L14.9341 38.8925C14.9377 38.8897 14.9414 38.8873 14.9451 38.8845L16.7503 37.4402L16.1703 41.5H14.5618ZM17.8118 41.5L18.604 35.9575L22.8474 32.5625H27.1524L35.0546 38.8845C35.0582 38.8873 35.0621 38.8897 35.0657 38.8926L35.4381 41.5H17.8118ZM23.375 30.9375V27.6875H26.625V30.9375H23.375ZM33.9375 28.5V30.125H32.607L30.657 28.5H33.9375ZM35.2853 36.9877L28.25 31.3595V28.6097L36.1729 35.2122L35.2853 36.9877ZM40.1275 34.1223L36.0254 23.0985L37.1832 11.5183C37.2027 11.305 37.1371 11.0925 37.0007 10.9273C36.8643 10.762 36.6681 10.6573 36.4549 10.636C36.2417 10.6147 36.0287 10.6785 35.8623 10.8134C35.6959 10.9484 35.5895 11.1436 35.5663 11.3567L34.0146 26.875H28.707L27.958 26.2508C27.812 26.1288 27.6277 26.0621 27.4375 26.0625H22.5625C22.3724 26.0623 22.1883 26.129 22.0425 26.2509L21.2929 26.875H19.2046L18.5459 22.2641L34.0612 5.19679L39.769 8.0507L47.5283 32.1039L40.1275 34.1223Z" fill="#2424FF"></path></svg>