<svg xmlns="http://www.w3.org/2000/svg" width="52" height="19" viewBox="0 0 52 19" fill="none"><path d="M34.3281 16.7527C36.7819 18.6106 40.2028 18.6106 42.6562 16.7527C43.8829 17.6818 45.3516 18.146 46.8203 18.146C48.5885 18.146 50.3563 17.4732 51.7024 16.1271C52.0991 15.7303 52.0991 15.0872 51.7024 14.6905C51.3057 14.2942 50.663 14.2942 50.2662 14.6905C49.3458 15.6109 48.1219 16.1179 46.8203 16.1179C45.5186 16.1179 44.2947 15.6109 43.3743 14.6905C42.9776 14.2942 42.3349 14.2942 41.9381 14.6905C41.0173 15.6109 39.7938 16.1179 38.4921 16.1179C37.1905 16.1179 35.9666 15.6109 35.0462 14.6905C34.6494 14.2942 34.0063 14.2942 33.6096 14.6905C32.7705 15.5296 31.699 15.9977 30.6004 16.0957C32.8082 15.3098 34.3932 13.2 34.3932 10.7264C34.3932 9.32914 33.8869 8.04851 33.049 7.05629L46.1097 7.04677C46.6707 7.04637 47.1246 6.59172 47.1246 6.03115C47.1246 4.67513 46.5961 3.40005 45.6368 2.44156C44.6783 1.48425 43.4052 0.957397 42.0512 0.957397C42.0496 0.957397 42.0476 0.957397 42.0456 0.957397L38.6941 0.959778C38.1335 0.960175 37.6789 1.41522 37.6793 1.97619C37.6796 2.53677 38.1343 2.99102 38.6949 2.99102H38.6957L42.0476 2.98864H42.0508C42.8629 2.98864 43.6266 3.30444 44.2011 3.8785C44.5284 4.20541 44.7716 4.59341 44.9211 5.01672L28.4529 5.02862C28.3899 5.02862 28.3288 5.03496 28.2689 5.04607C25.3255 5.26507 22.9971 7.72835 22.9971 10.7264C22.9971 12.4292 23.7489 13.9586 24.9363 15.0035C23.0241 16.5837 20.1788 16.4798 18.3899 14.6909C17.9932 14.2942 17.3501 14.2942 16.9534 14.6909C16.033 15.6113 14.8095 16.1179 13.5074 16.1179C12.5235 16.1179 11.5841 15.8279 10.7862 15.2888L12.1895 13.6586C15.6835 9.59932 19.8551 6.27037 24.5888 3.76504C25.5374 3.26278 26.6062 2.99737 27.6801 2.99737L30.5707 2.99539C31.1317 2.99499 31.5859 2.53994 31.5855 1.97897C31.5851 1.4184 31.1305 0.964142 30.5699 0.964142C30.5699 0.964142 30.5695 0.964142 30.5691 0.964142L27.6793 0.966125C26.2761 0.966125 24.8788 1.31326 23.6386 1.96945C18.6799 4.5942 14.31 8.08104 10.6498 12.3336L8.60186 14.7131C7.68423 15.6189 6.47064 16.1179 5.17968 16.1179C3.87802 16.1179 2.65411 15.6109 1.7337 14.6905C1.33697 14.2942 0.694274 14.2942 0.297546 14.6905C-0.099182 15.0872 -0.099182 15.7303 0.297546 16.1271C2.76202 18.5911 6.64004 18.7998 9.34374 16.7527C11.7975 18.6106 15.2185 18.6106 17.6719 16.7527C20.1256 18.6106 23.5466 18.6106 26 16.7527C28.4537 18.6106 31.8747 18.6106 34.3281 16.7527ZM28.6953 7.05986C30.7171 7.05986 32.3623 8.7047 32.3623 10.7264C32.3623 12.7485 30.7175 14.3934 28.6953 14.3934C26.6736 14.3934 25.0288 12.7485 25.0288 10.7264C25.0288 8.7047 26.6736 7.05986 28.6953 7.05986Z" fill="#2424FF"></path></svg>