<svg xmlns="http://www.w3.org/2000/svg" width="52" height="52" viewBox="0 0 52 52" fill="none"><path d="M51.9662 29.2251C51.9998 29.0741 51.9917 28.9168 51.9428 28.7701C51.3485 20.1833 44.2432 13.5017 35.636 13.4357C32.7632 3.80616 22.6281 -1.67149 12.9986 1.20123C3.36898 4.07395 -2.10855 14.2091 0.764058 23.8386C2.27657 28.9086 5.92093 33.0691 10.7476 35.2362C9.04053 36.1494 7.45468 37.273 6.02699 38.5806L3.55444 40.8469C2.49583 41.8171 2.42412 43.4616 3.39433 44.5203C3.50277 44.6385 3.62193 44.7467 3.75031 44.843L6.53744 46.9333C10.5494 49.9295 15.42 51.553 20.4272 51.563H22.9075C27.9141 51.5526 32.7841 49.9291 36.7955 46.9333L37.7766 46.1975C45.9312 45.0932 52.0106 38.1258 52 29.8968C52 29.6697 51.9748 29.4496 51.9662 29.2251ZM47.4215 21.2303C48.9902 23.367 49.9487 25.8899 50.1948 28.5292L49.4598 28.8967L45.2046 26.0601L46.5869 21.2303H47.4215ZM41.5578 16.4681C43.1965 17.202 44.6878 18.2285 45.9586 19.497H45.9334C45.5465 19.4973 45.2067 19.7541 45.1006 20.1262L43.4765 25.8097L40.692 27.094L36.4003 24.2332V20.8152L41.231 17.4353C41.5384 17.2181 41.6704 16.8273 41.5578 16.4681ZM21.9819 20.5656C21.889 20.6415 21.8128 20.736 21.7584 20.8429C21.7483 20.8739 21.7398 20.9054 21.7332 20.9374L19.4262 18.6304L22.1795 15.877C22.9119 16.5428 23.697 17.148 24.5273 17.6866H24.5256C23.5688 18.5444 22.7152 19.5104 21.9819 20.5656ZM20.8414 22.4956C19.8587 24.4403 19.2749 26.5618 19.1246 28.7355C18.3229 26.4663 17.0752 24.3804 15.4552 22.6005L18.199 19.8532L20.8414 22.4956ZM22.8876 22.376L23.5809 22.7227L24.9797 26.2187L21.494 29.7087L20.825 29.3742C20.91 26.9047 21.6197 24.4969 22.8876 22.376ZM21.2791 31.5347C21.6128 31.7012 22.0156 31.6357 22.2792 31.3718L26.2086 27.4433L29.6171 28.8065L31.2334 34.4631C31.2491 34.507 31.2689 34.5494 31.2923 34.5897C28.2717 33.2085 24.9888 32.4946 21.6674 32.4967C21.4628 32.4967 21.2592 32.5054 21.0546 32.5106L21.0529 32.5063C20.9836 32.118 20.9177 31.7263 20.8796 31.3345L21.2791 31.5347ZM30.2324 27.1894L26.667 25.7629L25.0724 21.7763C24.9935 21.5788 24.8449 21.4172 24.6547 21.3222L23.8747 20.9304C25.3572 19.001 27.2926 17.4668 29.5096 16.4638C29.397 16.8229 29.529 17.2137 29.8364 17.4309L34.667 20.8152V24.2332L30.2324 27.1894ZM35.5337 25.7369L39.6364 28.4781C39.6433 28.4963 39.6416 28.5153 39.6503 28.5335C39.6662 28.5636 39.6842 28.5926 39.704 28.6202L38.3468 33.3634H32.7206L31.3409 28.5335L35.5337 25.7369ZM39.4795 15.7167V15.721L39.7049 16.3892L35.5337 19.3055L31.3625 16.3849L31.5879 15.7167C34.1668 14.9795 36.9006 14.9795 39.4795 15.7167ZM33.8541 13.5172C31.003 13.812 28.2793 14.8511 25.9564 16.5305C25.0481 15.9871 24.1944 15.3576 23.4067 14.6507L30.4361 7.62395C31.9743 9.32832 33.1386 11.3357 33.8541 13.5172ZM29.2002 6.40458L22.1804 13.4244C19.7265 10.7037 18.2533 7.24024 17.9954 3.58538L17.8948 2.18661C22.0623 2.10504 26.1047 3.61322 29.2002 6.40458ZM16.1667 2.31314L16.2664 3.70844C16.5525 7.78006 18.2035 11.6361 20.9524 14.6533L18.2008 17.4049L7.20129 6.40458C9.69821 4.15184 12.8288 2.72317 16.1667 2.31314ZM5.97585 7.63002L16.9753 18.6304L14.2307 21.375C11.2106 18.6272 7.35209 16.9783 3.27885 16.6951L1.88268 16.5955C2.29326 13.2574 3.72246 10.1268 5.97585 7.63002ZM1.75702 18.3244L3.15579 18.4241C6.81163 18.6796 10.2771 20.1502 13.0009 22.6022L5.97325 29.6307C3.18265 26.5344 1.67512 22.492 1.75702 18.3244ZM7.18916 30.8683L14.2307 23.8302C16.4639 26.3186 17.8827 29.4303 18.297 32.748C16.4479 33.019 14.6386 33.5136 12.909 34.2213C10.7953 33.5019 8.84944 32.3613 7.18916 30.8683ZM38.6649 43.3489C38.6287 43.3883 38.5889 43.4243 38.5462 43.4564L35.7547 45.5477C32.0438 48.3187 27.5388 49.8202 22.9075 49.8298H20.4272C15.7959 49.8202 11.2909 48.3187 7.58002 45.5477L4.79201 43.4564C4.40906 43.1693 4.33139 42.6261 4.61858 42.2431C4.65064 42.2003 4.68672 42.1606 4.72615 42.1244L7.19436 39.8581C8.95874 38.2501 10.98 36.9489 13.1742 36.0085C13.3058 35.9839 13.4299 35.9291 13.5365 35.8482C21.2102 32.6787 30.0252 34.2425 36.1403 39.8581L38.612 42.1244C38.9647 42.4479 38.9885 42.996 38.6649 43.3489ZM37.3077 38.5806C35.8058 37.2052 34.1291 36.0338 32.321 35.0967H38.6415L40.5481 37.0033L38.9864 40.1232L37.3077 38.5806ZM40.393 43.7987C40.7433 43.0451 40.6915 42.1659 40.2552 41.4587L42.1358 37.6966H47.1312L47.5168 38.4679C45.7511 40.9393 43.262 42.8019 40.393 43.7987ZM48.5828 36.7286L48.4467 36.4426C48.2992 36.1474 47.9968 35.9615 47.6667 35.9633H41.959L39.9735 33.9778L41.5014 28.6297L44.123 27.4208L48.919 30.6178C49.1773 30.7899 49.5078 30.8107 49.7857 30.6724L50.239 30.4454C50.163 32.6372 49.5971 34.7841 48.5828 36.7286Z" fill="#2424FF"></path></svg>