<svg xmlns="http://www.w3.org/2000/svg" width="52" height="52" viewBox="0 0 52 52" fill="none"><path d="M31.2812 25.4962C31.922 24.9229 32.3937 24.1778 32.6408 23.3594H36.6133C37.8733 23.3594 38.8984 22.3342 38.8984 21.0742C38.8984 19.8142 37.8733 18.7891 36.6133 18.7891H32.6984C32.3655 17.6183 31.2876 16.7578 30.0117 16.7578H21.8867C20.6108 16.7578 19.5325 17.6183 19.2001 18.7891H15.2852C14.0251 18.7891 13 19.8142 13 21.0742C13 22.3342 14.0251 23.3594 15.2852 23.3594H19.2572C19.5048 24.1778 19.9765 24.9229 20.6172 25.4962V29.707C20.6172 31.1563 21.1992 32.4714 22.1406 33.4335V49.6736L19.6147 50.5154C19.2155 50.6483 18.9997 51.08 19.1326 51.4791C19.2393 51.7981 19.5365 52 19.8555 52C19.9352 52 20.0165 51.9873 20.0963 51.9607L23.1432 50.9451C23.4542 50.8416 23.6641 50.5504 23.6641 50.2227V38.1403H35.0898C36.3499 38.1403 37.375 37.1151 37.375 35.8551C37.375 34.7633 36.5978 33.8199 35.5278 33.612L30.4156 32.6139C30.9619 31.7768 31.2812 30.7786 31.2812 29.7066V25.4962ZM37.375 21.0742C37.375 21.4944 37.0334 21.8359 36.6133 21.8359H32.8047V20.3125H36.6133C37.0334 20.3125 37.375 20.6541 37.375 21.0742ZM21.8867 18.2812H30.0117C30.7115 18.2812 31.2812 18.8506 31.2812 19.5508V21.8359H27.9805C27.2802 21.8359 26.7109 21.2662 26.7109 20.5664C26.7109 20.1455 26.3698 19.8047 25.9492 19.8047C25.5283 19.8047 25.1875 20.1455 25.1875 20.5664C25.1875 21.2662 24.6178 21.8359 23.918 21.8359H20.6172V19.5508C20.6172 18.8506 21.1865 18.2812 21.8867 18.2812ZM14.5234 21.0742C14.5234 20.6541 14.865 20.3125 15.2852 20.3125H19.0938V21.8359H15.2852C14.865 21.8359 14.5234 21.4944 14.5234 21.0742ZM23.918 23.3594C24.7178 23.3594 25.4394 23.021 25.9492 22.4802C26.4586 23.021 27.1807 23.3594 27.9805 23.3594H31.0143C30.7972 23.8156 30.4711 24.2203 30.0621 24.5277C29.8705 24.6714 29.7578 24.8971 29.7578 25.1367V28.9453H22.1406V25.1367C22.1406 24.8971 22.028 24.6714 21.8363 24.5277C21.4269 24.2203 21.1008 23.8156 20.8842 23.3594H23.918ZM25.9492 33.5156C24.11 33.5156 22.5711 32.2048 22.2172 30.4688H29.6812C29.3274 32.2048 27.7885 33.5156 25.9492 33.5156ZM35.8516 35.8551C35.8516 36.2749 35.51 36.6169 35.0898 36.6169H23.6641V34.5233C24.3571 34.8534 25.132 35.0391 25.9492 35.0391C27.1723 35.0391 28.2994 34.6241 29.2 33.929L35.237 35.1077C35.5929 35.1767 35.8516 35.4909 35.8516 35.8551Z" fill="#2424FF"></path><path d="M25.9492 15.2344C28.8894 15.2344 31.2812 12.8425 31.2812 9.90234C31.2812 7.7731 30.0264 5.93228 28.2177 5.07812C28.7013 4.53857 28.9961 3.82684 28.9961 3.04688C28.9961 1.36673 27.6294 0 25.9492 0C24.2691 0 22.9023 1.36673 22.9023 3.04688C22.9023 3.82684 23.1971 4.53857 23.6807 5.07812C21.872 5.93228 20.6172 7.7731 20.6172 9.90234C20.6172 12.8425 23.0091 15.2344 25.9492 15.2344ZM24.4258 3.04688C24.4258 2.207 25.1093 1.52344 25.9492 1.52344C26.7891 1.52344 27.4727 2.207 27.4727 3.04688C27.4727 3.88675 26.7891 4.57031 25.9492 4.57031C25.1093 4.57031 24.4258 3.88675 24.4258 3.04688ZM25.9492 6.09375C28.0491 6.09375 29.7578 7.80206 29.7578 9.90234C29.7578 12.0022 28.0491 13.7109 25.9492 13.7109C23.8489 13.7109 22.1406 12.0022 22.1406 9.90234C22.1406 7.80206 23.8489 6.09375 25.9492 6.09375Z" fill="#2424FF"></path></svg>